<svg id="Calque_1" data-name="Calque 1" xmlns="http://www.w3.org/2000/svg" viewBox="0 0 1050.46 774.94"><defs><style>.cls-1{fill:#de007d;}.cls-2{fill:#00cb82;}.cls-3{fill:#a26648;}.cls-4{fill:#f7c306;}.cls-5{fill:#faf9f8;}.cls-6{fill:#fbfaf9;}.cls-7{fill:#894120;}.cls-8{fill:#8a4221;}.cls-9{fill:#f7c206;}</style></defs><title>avatar4</title><rect class="cls-1" x="185.7" y="599.93" width="476.95" height="173.68"/><ellipse class="cls-2" cx="89.51" cy="569.87" rx="89.51" ry="134.27"/><path class="cls-3" d="M132.57,402.94c0,.2,0,.4,0,.6,0,163.47,125.61,296,280.56,296S693.67,567,693.67,403.54v-.6Z" transform="translate(46.46 5.94)"/><path class="cls-3" d="M408.44,62.26c-180.92,0-327.62,146.49-328,327.32h656C736.06,208.75,589.36,62.26,408.44,62.26Z" transform="translate(46.46 5.94)"/><path class="cls-3" d="M1004,364.48c0,.42-.14.6-.55.54Z" transform="translate(46.46 5.94)"/><path class="cls-3" d="M411.78,184.54c-199,0-360.31,161.1-360.71,360H772.5C772.1,345.64,610.76,184.54,411.78,184.54Z" transform="translate(46.46 5.94)"/><path class="cls-2" d="M26.86,396.68c7.44,11.46,6.57,18.48-1.54,29.37C14.34,440.79,2.89,455.22-7,470.79c-.56.9-.84,2.16-2.23,2.29-.07,1.67-.2,3.34-.2,5q0,86.48,0,172.95c0,1.67.06,3.35.09,5,3.73,3.45,6,8,8.92,12,15.46,21.4,35.27,37.79,58.05,50.81,13.2,7.55,27,14,40.73,20.41,8.3,3.85,12.14,9.64,12.53,18.41.15,3.32.06,6.71,1.18,9.93H249.55c1.37-5.88,4.92-10.77,7.45-16.12,7.88-16.7,15.32-33.64,24-49.91,13.81-25.82,26-52.45,40.07-78.13a6.85,6.85,0,0,0,.43-1.6c-16.73,0-33.45-.17-50.18-.13-18.6,0-36.18-4-52.25-13.46-14-8.28-25.76-18.95-34.58-32.91-7.31-11.58-12.51-23.79-14.58-37.32-.42-2.75-1.52-4.31-4.75-3.54-1.56.37-3.3,0-5-.11l-.83.17c-1.11,1.31-2.2,1.27-3.28,0a2.73,2.73,0,0,0-.68-.18,26.06,26.06,0,0,1-10.48-1.3c-10.61-2.53-20.29-7.17-28.26-14.53-7.39-6.81-13.36-14.84-16.5-24.67-2.81-8.82-4.89-17.84-4-27.07,1.14-11.33,4.49-22,12.2-30.89,1.91-2.2,3.6-4.58,5.4-6.88l.66-.64,1.07-1.13c.1-.84.49-1.34,1.43-1.13l1.74-.72.67-.44,1.18-1,.56-.6,1.18-1.16c0-.33.14-.48.47-.45l1.86-1.6a4.32,4.32,0,0,0-1.73-3.63c-4.47-3.79-7.52-8.81-9.81-13.93a61.43,61.43,0,0,1-4.25-13H22.54C23.91,392,25.34,394.34,26.86,396.68Z" transform="translate(46.46 5.94)"/><path class="cls-2" d="M817.81,382.57c-10.48-16.79-20.56-33.82-31-50.64-3.93-6.34-5.74-12.84-4.26-20.3,2.13-10.8,4.26-21.62,5.84-32.5,2.67-18.28,3.44-36.5.19-55-4-22.6-13.23-42.78-26-61.45-9.33-13.66-21.21-25-34.61-34.82-17.13-12.56-36.1-20.76-56.67-25.73-18.46-4.45-36.91-4.38-55.65-2.07-10.66,1.32-20.55,5-30.74,7.71-8.58,2.32-15.26-.44-21.18-6.41C549.33,86.84,535,72.18,520.39,57.82,495,32.9,465.78,14.41,431.53,3.92,407.51-3.43,383-7,358.06-5.68c-41.51,2.13-79.78,14.37-114.36,38-35.34,24.18-60.87,56.08-77.63,95.25-2.09,4.86-3.62,10-5.58,14.87-2.82,7.12-8.35,11-15.72,12.25A218.08,218.08,0,0,0,109,163.3c-27.72,9.55-51.32,25.18-70.12,48A167.61,167.61,0,0,0,6.94,272.8c-5.34,18.73-6.33,38-4.13,57.26a156.54,156.54,0,0,0,19.73,60.85h86.31A45.13,45.13,0,0,1,110,368.34c5.42-17.44,17.08-28.31,33.89-34,6.06-2.05,12.6-1.47,19-1.78,10.33-.5,17.95,6.1,26.89,9.12a173.32,173.32,0,0,0,30.19,7.59c10.14,1.5,20.33.51,30.49.82,13.36-2.37,26.69-4.68,39.33-10A134.45,134.45,0,0,0,329,315.21c3.15-2.9,6.72-5.42,9.18-9.07a5.62,5.62,0,0,1,4.32-2.24c-.15-4.58,4.11-6.38,6.14-9.58,2.52-4,5.91-7.36,8.68-11.18,6.49-9,15.22-14.49,26.1-15.61A33.33,33.33,0,0,1,406.6,274c6.27,4.48,11.08,10.56,17.55,14.8,14.19,9.31,29.83,13.65,46.49,11.58,15-1.85,28.58-7.56,39.86-18.46,8.11-7.83,13.37-17.34,18.85-26.86a7.9,7.9,0,0,1,.75-1.48c.82-.9,1.12-2.73,2.46-2.57s2,2,2.23,3.21c2.13,10.25,7.11,19.28,12.25,28.16a119.56,119.56,0,0,0,26.39,32.09c6.53,5.49,13.24,10.94,20.83,14.35,13,5.83,26.56,10.21,41.28,6.7,4-1,8.05-2,12-3.3a3,3,0,0,1,2.79.09c1.79,1.18,3.81,1.06,5.7.78,15.87-2.36,28.94,3.68,40.36,13.86,7,6.27,10.74,14.78,13.23,23.72a44.56,44.56,0,0,1,1,20.23h0a54.9,54.9,0,0,1-6,16.46A34.35,34.35,0,0,1,697,417.2c-1.54,1.32-2.82,2.76-2,5l3.26,2.37.66.44a61,61,0,0,1,21.61,30.83,56.43,56.43,0,0,1,2,25.12,69.56,69.56,0,0,1-8.2,24.35c-5.42,9.71-13.33,16.92-22.89,22.44a59.92,59.92,0,0,1-10.53,4.9c-.78,1.19-1.89,1-3,.76l-2.64,1c-3.4,1.06-6.81,1.93-10.41,1.13l-1.71.37a3.46,3.46,0,0,1-4.91,0,3.66,3.66,0,0,0-.79-.2c-2.31.89-4.82-1.5-6.9.15s-1.1,4.46-1.55,6.71c-2.53,12.72-7.84,24.34-14.52,35.26-4.19,6.85-10,12.56-15.72,18.24-7.35,7.33-16.09,12.89-25.29,17.37a83.13,83.13,0,0,1-17.49,6.29,133.57,133.57,0,0,1-31.37,3.35c-13.81-.11-27.63,0-41.44,0a11.87,11.87,0,0,0-5.71.91c4.24,10.43,9.8,20.22,14.76,30.3,11.76,23.86,23.76,47.61,35.55,71.46,6.46,13,12.73,26.2,19,39.33A28.48,28.48,0,0,1,568,769H752.35c-.12-4.78,2.66-8.68,4.09-13A175.08,175.08,0,0,0,763,671.48c-.76-4.67-1.69-9.31-2.71-13.93-1.85-8.38.07-13.42,7.24-18.27A189.94,189.94,0,0,0,805.39,606c8.12-9.42,14.92-19.78,21.36-30.38.57-.94,1.24-1.82,1.86-2.72V400.34C824.24,394.88,821.49,388.45,817.81,382.57Z" transform="translate(46.46 5.94)"/><path class="cls-3" d="M179.17,402.88c0,.2,0,.4,0,.6,0,163.47,112.46,296,251.17,296S681.5,567,681.5,403.48c0-.2,0-.4,0-.6Z" transform="translate(46.46 5.94)"/><path class="cls-3" d="M133.9,394.92c0,.2,0,.4,0,.61,0,163.46,112.46,296,251.17,296S636.23,559,636.23,395.53c0-.21,0-.41,0-.61Z" transform="translate(46.46 5.94)"/><path class="cls-4" d="M124.74,420c3-1.48,6-2.89,8.91-4.45,8.8-4.69,18.3-5.24,28-4.86,3.56.13,5.58,2.41,6.77,5.36a8.84,8.84,0,0,1-1.25,9.08A9.41,9.41,0,0,1,159,429c-2.95,0-6.13-.9-8.94.91l-3.83.76c-1.07-.19-2.14-.32-2.87.77-20.69,7.45-32.06,29.82-27.27,51.4,3.48,15.67,16.7,28.69,33.41,32.11,5.09,2.36,10.27,1.81,15.48.52l1.26-.47c1.24.66,2.51,1.4,2.4,3a83.47,83.47,0,0,0,.3,12.35c.16,1.94-.88,2.56-2.7,2.78-2,.24-4.17-.35-5.91,1.15l-.82.16-3.28,0a3.22,3.22,0,0,0-.68-.17c-3.31-1.89-6.95-1.18-10.48-1.31-10.62-2.53-20.29-7.17-28.27-14.53-7.38-6.81-13.36-14.84-16.49-24.67-2.82-8.82-4.9-17.84-4-27.07,1.14-11.33,4.49-22,12.19-30.89,1.91-2.2,3.61-4.58,5.4-6.88.5.07.72-.15.67-.64.35-.38.71-.75,1.06-1.12a1.22,1.22,0,0,0,1.44-1.14l1.74-.72c.42.16.69.08.67-.44l1.18-1c.47.06.64-.15.56-.61l1.18-1.15c.4.1.57,0,.47-.45Z" transform="translate(46.46 5.94)"/><path class="cls-2" d="M164.22,514.78l-1.26.47-15.48-.52c-16.71-3.41-29.93-16.44-33.41-32.11-4.79-21.58,6.58-43.95,27.27-51.39,1.08.2,2.17.41,2.87-.78l3.83-.75c4.21,1.52,8.48.93,12.73.36,4.5-.61,5.63.22,5.64,4.66q0,37.8.05,75.61C166.46,512.27,166.24,513.94,164.22,514.78Z" transform="translate(46.46 5.94)"/><path class="cls-2" d="M664,516.24l-3,0a3.75,3.75,0,0,0-3.79-1.17c-4.31.8-5.25-1.31-5.23-5.15q.15-37.15,0-74.31c0-4,1.45-5,5.16-4.77a70.36,70.36,0,0,0,15.82-.33l2,.31a1.56,1.56,0,0,0,2.07,1,34.45,34.45,0,0,1,15.7,9.76c9.35,9.68,13.8,21.64,12.75,34.86-1.16,14.61-8.37,26.09-21.32,33.65-4.36,2.55-8.78,4.7-13.89,5A7.39,7.39,0,0,0,664,516.24Z" transform="translate(46.46 5.94)"/><path class="cls-5" d="M347.79,297.91c4.09,3.17,9.32,3.46,13.92,5.45a82.35,82.35,0,0,1,25,16.7,72,72,0,0,1,21.07,39.46c3.41,19.45,1,37.92-15.52,51.48-6.55,5.38-14.74,7.87-23.24,8.23-20.67.89-39.73-4.43-57.51-15-12.81-7.6-26.17-14.19-39.53-20.8-7.47-3.69-14.66-7.68-19.16-15.4-3.85-6.6-4.29-13.45-3.58-20.66,14.3-2.54,28.57-5,42.1-10.75a144.08,144.08,0,0,0,42-26.61c3.37-3.11,7.19-5.8,9.83-9.7A6,6,0,0,1,347.79,297.91ZM387,366.16h.27c0-5.38,0-10.76,0-16.13,0-6.76-1.68-12.94-6.18-18.18-6.26-7.28-14.11-10.7-23.72-9.64-2.3.25-4,.62-3.29,4.16,2.91,14-3.2,23.59-17.2,27.48-2.7.75-3.56,2-3.51,4.71.15,6.86.05,13.74.06,20.61a29,29,0,0,0,9.16,21.89c7.79,7.47,17.14,8.3,26.65,5.28,10.72-3.41,16.82-11.38,17.68-22.73C387.36,377.83,387,372,387,366.16Z" transform="translate(46.46 5.94)"/><path class="cls-6" d="M472.32,419.16c-8,0-15.9-.62-23.05-4.35a38.71,38.71,0,0,1-20.22-25.46c-7.1-28,1.87-51.69,21.76-71.07,14.26-13.9,32.46-20.68,52.46-22.09,17-1.2,33.25,1.12,48.36,9.45,16.31,9,28.18,21.82,33.92,39.73,3.56,11.12-.55,24.2-11.78,31.89-13.46,9.23-28.73,14.94-42.68,23.11-12.15,7.11-24.59,13.22-38.35,16.49A89.49,89.49,0,0,1,472.32,419.16ZM506,364.47c-.28-6.43.28-13.15-.66-19.86-2-14.35-16.14-24.28-29.58-22.34-2.26.32-4.61.45-3.48,4,3.86,12.25-3.33,24.48-16,27.21-3.38.72-4.36,2.14-4.27,5.41.21,6.87.24,13.75,0,20.62a27,27,0,0,0,18.54,27c15.26,5.34,34.17-6.49,34.9-22.08C505.76,377.86,505.72,371.31,506,364.47Z" transform="translate(46.46 5.94)"/><path class="cls-7" d="M412.11,526.71a25,25,0,0,1-25.3-25c0-5.67,2.6-10.84,5.13-15.74a249.68,249.68,0,0,1,15.26-25.27c3.8-5.6,5.87-4.55,8.77-.32,6.37,9.3,12.65,18.62,17.68,28.71C442.3,506.52,430.8,526.9,412.11,526.71Z" transform="translate(46.46 5.94)"/><path class="cls-8" d="M391.67,584.29a89.6,89.6,0,0,1-33.94-6,74.16,74.16,0,0,1-33.41-26.12c-4.83-6.66-3.29-12.89,3.54-15.79,4.35-1.85,7.69.29,10.37,3.29a146.8,146.8,0,0,0,11.48,11.52c9.43,8.43,20.68,12.32,32.89,13.71,6.46.74,12.94,1.4,19.54.22,4.88-.87,10.47,3.43,11.11,7.53.7,4.47-3,8.91-8.3,10.48C400.56,584.43,396.14,584.33,391.67,584.29Z" transform="translate(46.46 5.94)"/><ellipse class="cls-5" cx="396.79" cy="368.13" rx="48.1" ry="50.1"/><ellipse class="cls-5" cx="533.06" cy="368.13" rx="48.1" ry="50.1"/><path class="cls-1" d="M371.25,365.31c0,12.89-10.92,24.09-23.47,24.15-13.24.06-24.41-11.29-24.28-24.67.13-13.09,10.78-23.29,24.17-23.17S371.28,351.87,371.25,365.31Z" transform="translate(46.46 5.94)"/><path class="cls-1" d="M505.3,365.41c0,12.88-10.92,24.09-23.47,24.14-13.25.06-24.41-11.28-24.28-24.67.13-13.08,10.78-23.29,24.17-23.16S505.33,352,505.3,365.41Z" transform="translate(46.46 5.94)"/><ellipse class="cls-2" cx="808.27" cy="491.04" rx="84.17" ry="136.94"/><path class="cls-5" d="M337,351.42c0,9.46-8,17.7-17.24,17.74A18.08,18.08,0,0,1,301.89,351a17.23,17.23,0,0,1,17.75-17C329.59,334.11,337,341.55,337,351.42Z" transform="translate(46.46 5.94)"/><path class="cls-5" d="M470.2,353.08c0,9.47-8,17.7-17.24,17.74a18.08,18.08,0,0,1-17.83-18.12,17.23,17.23,0,0,1,17.75-17C462.83,335.77,470.23,343.21,470.2,353.08Z" transform="translate(46.46 5.94)"/><path class="cls-9" d="M658.46,534.43a2.06,2.06,0,0,0-2.12-1.06c-5.23.66-5.23-2.6-4.81-6.24.17-1.53.35-3.06.4-4.59.2-6.23.18-6.22,6.55-6.17.83,0,1.66-.1,2.49-.15l3,0c2.18.22,4.39.57,6.2-1.19,5.12-.3,9.54-2.45,13.9-5,12.95-7.56,20.16-19,21.32-33.65,1.05-13.22-3.4-25.18-12.75-34.86a34.45,34.45,0,0,0-15.7-9.76c-.41-.92-1.23-1-2.07-1l-2-.31c-4-1.52-8.2-1.3-12.36-1.45-5.77-.21-10.4-5.13-9.73-10.31.61-4.66,6.45-8.66,11.46-8.3,7.35.52,14.59,1.23,21.62,3.77,4.48,1.62,8.05,4.59,12.16,6.71l3.25,2.37c0,.52.24.61.67.43a61,61,0,0,1,21.6,30.84,56.58,56.58,0,0,1,2,25.12,69.76,69.76,0,0,1-8.2,24.35c-5.43,9.71-13.33,16.91-22.9,22.44a59.26,59.26,0,0,1-10.53,4.9,3.22,3.22,0,0,0-3,.76l-2.64,1c-3.51.07-7.07-.39-10.42,1.13l-1.7.37a11.66,11.66,0,0,0-4.92,0A3.06,3.06,0,0,0,658.46,534.43Z" transform="translate(46.46 5.94)"/></svg>