<svg id="Calque_1" data-name="Calque 1" xmlns="http://www.w3.org/2000/svg" viewBox="0 0 940.06 693.49"><defs><style>.cls-1{fill:#ffc5c5;}.cls-2{fill:#3d3d3d;}.cls-3{fill:#a26648;}.cls-4{fill:#f7c306;}.cls-5{fill:#403e3c;}.cls-6{fill:#faf9f8;}.cls-7{fill:#fbfaf9;}.cls-8{fill:#894120;}.cls-9{fill:#8a4221;}.cls-10{fill:#414141;}.cls-11{fill:#f7c206;}</style></defs><title>avatar4</title><rect class="cls-1" x="166.18" y="536.87" width="426.82" height="155.42"/><ellipse class="cls-2" cx="80.1" cy="509.97" rx="80.1" ry="120.16"/><path class="cls-3" d="M161.57,421.41c0,.18,0,.36,0,.54,0,146.29,112.41,264.88,251.07,264.88S663.7,568.24,663.7,422v-.54Z" transform="translate(-1.36 -55.51)"/><path class="cls-3" d="M408.45,116.54c-161.9,0-293.18,131.09-293.51,292.92H702C701.63,247.63,570.35,116.54,408.45,116.54Z" transform="translate(-1.36 -55.51)"/><path class="cls-3" d="M941.41,387c0,.37-.13.53-.5.48Z" transform="translate(-1.36 -55.51)"/><path class="cls-3" d="M411.44,226C233.38,226,89,370.14,88.64,548.12h645.6C733.89,370.14,589.51,226,411.44,226Z" transform="translate(-1.36 -55.51)"/><path class="cls-2" d="M67,415.81c6.65,10.26,5.88,16.54-1.38,26.28-9.83,13.2-20.08,26.11-28.89,40.05-.5.8-.76,1.92-2,2-.06,1.5-.18,3-.18,4.49q0,77.38,0,154.78c0,1.5.06,3,.09,4.49,3.33,3.09,5.36,7.15,8,10.77,13.83,19.14,31.56,33.81,51.94,45.46,11.82,6.76,24.13,12.56,36.46,18.27,7.42,3.44,10.86,8.62,11.21,16.47.13,3,0,6,1.06,8.89h123c1.23-5.26,4.4-9.64,6.66-14.43,7.06-14.94,13.72-30.1,21.5-44.66,12.35-23.1,23.26-46.94,35.85-69.92a6,6,0,0,0,.38-1.43c-15,0-29.93-.15-44.9-.12-16.64,0-32.38-3.55-46.75-12-12.55-7.41-23.06-17-30.95-29.46-6.55-10.36-11.2-21.28-13.05-33.39-.37-2.46-1.37-3.86-4.25-3.17-1.4.33-3,0-4.44-.09l-.75.14c-1,1.18-2,1.14-2.93,0a2.49,2.49,0,0,0-.61-.16,23.52,23.52,0,0,1-9.38-1.16,55.76,55.76,0,0,1-25.29-13c-6.61-6.09-11.95-13.28-14.76-22.07-2.52-7.9-4.38-16-3.55-24.23,1-10.14,4-19.71,10.92-27.65,1.71-2,3.23-4.1,4.83-6.15l.6-.58,1-1c.1-.76.45-1.2,1.29-1l1.55-.64.6-.39,1.06-.92.5-.54,1-1c0-.29.13-.43.42-.4l1.66-1.44a3.83,3.83,0,0,0-1.54-3.24,34.44,34.44,0,0,1-8.78-12.47,54.41,54.41,0,0,1-3.8-11.64H63.11C64.34,411.6,65.62,413.72,67,415.81Z" transform="translate(-1.36 -55.51)"/><path class="cls-2" d="M774.8,403.18c-9.38-15-18.41-30.26-27.74-45.31-3.51-5.68-5.13-11.49-3.82-18.17,1.91-9.66,3.82-19.34,5.24-29.09,2.38-16.35,3.08-32.66.16-49.17-3.57-20.23-11.83-38.29-23.25-55-8.35-12.22-19-22.36-31-31.16-15.33-11.24-32.3-18.58-50.71-23-16.52-4-33-3.92-49.81-1.85-9.53,1.17-18.38,4.43-27.5,6.89-7.68,2.08-13.65-.39-18.95-5.74-12.91-13-25.73-26.14-38.81-39-22.7-22.31-48.88-38.85-79.52-48.23-21.5-6.59-43.42-9.75-65.75-8.6C326.22,57.65,292,68.6,261,89.77,229.4,111.41,206.55,140,191.55,175c-1.86,4.35-3.24,8.91-5,13.31-2.52,6.37-7.47,9.88-14.07,11a194.16,194.16,0,0,0-32,7.67c-24.8,8.55-45.92,22.54-62.75,42.95a149.89,149.89,0,0,0-28.59,55c-4.78,16.76-5.67,34-3.69,51.25a139.8,139.8,0,0,0,17.65,54.45h77.24a40.33,40.33,0,0,1,1-20.2c4.85-15.6,15.28-25.34,30.33-30.42,5.42-1.83,11.27-1.31,17-1.59,9.24-.45,16.06,5.46,24.06,8.16a155.15,155.15,0,0,0,27,6.79c9.07,1.35,18.19.46,27.29.74,11.95-2.12,23.88-4.19,35.19-9a120.09,120.09,0,0,0,35.09-22.23c2.82-2.6,6-4.86,8.22-8.12a5,5,0,0,1,3.86-2c-.13-4.09,3.68-5.71,5.5-8.57,2.26-3.55,5.29-6.59,7.77-10,5.8-8,13.62-13,23.35-14A29.78,29.78,0,0,1,406.8,306c5.61,4,9.92,9.46,15.71,13.25,12.69,8.33,26.69,12.21,41.6,10.36,13.39-1.66,25.58-6.77,35.68-16.51,7.25-7,12-15.53,16.86-24a7.88,7.88,0,0,1,.67-1.33c.73-.8,1-2.44,2.2-2.3s1.79,1.83,2,2.87c1.91,9.18,6.36,17.26,11,25.2a106.92,106.92,0,0,0,23.62,28.72c5.84,4.91,11.85,9.8,18.64,12.85,11.59,5.21,23.77,9.13,36.94,6,3.62-.86,7.2-1.81,10.73-3a2.72,2.72,0,0,1,2.5.09,7,7,0,0,0,5.1.69c14.2-2.1,25.9,3.3,36.12,12.41,6.29,5.61,9.6,13.22,11.84,21.22a39.92,39.92,0,0,1,.85,18.11h0a48.63,48.63,0,0,1-5.37,14.73,30.65,30.65,0,0,1-6.82,8.8c-1.37,1.18-2.52,2.46-1.78,4.49l2.92,2.12.59.39a54.54,54.54,0,0,1,19.33,27.59,50.55,50.55,0,0,1,1.8,22.48A62.52,62.52,0,0,1,682.15,513c-4.86,8.69-11.93,15.14-20.49,20.09a53.82,53.82,0,0,1-9.43,4.38c-.69,1.06-1.68.92-2.7.68l-2.36.89c-3,.94-6.1,1.72-9.33,1l-1.52.33a3.12,3.12,0,0,1-4.4,0,2.85,2.85,0,0,0-.71-.18c-2.06.79-4.31-1.34-6.16.13s-1,4-1.4,6c-2.26,11.38-7,21.77-13,31.55-3.75,6.13-9,11.24-14.07,16.32A83.12,83.12,0,0,1,574,609.82a74.16,74.16,0,0,1-15.65,5.62,119.52,119.52,0,0,1-28.08,3c-12.36-.09-24.72,0-37.07,0a10.66,10.66,0,0,0-5.12.82c3.8,9.33,8.77,18.1,13.21,27.11,10.52,21.36,21.26,42.61,31.82,63.95,5.78,11.68,11.38,23.45,17,35.2a26.12,26.12,0,0,1,1.13,3.51h165c-.1-4.28,2.39-7.76,3.66-11.61a156.71,156.71,0,0,0,5.9-75.66c-.68-4.18-1.51-8.33-2.43-12.47-1.65-7.5.07-12,6.49-16.34a169.92,169.92,0,0,0,33.85-29.76C771,594.74,777,585.47,782.79,576c.51-.84,1.11-1.62,1.67-2.43V419.09C780.55,414.21,778.08,408.45,774.8,403.18Z" transform="translate(-1.36 -55.51)"/><path class="cls-3" d="M203.28,421.36c0,.18,0,.36,0,.54,0,146.29,100.63,264.88,224.77,264.88S652.81,568.19,652.81,421.9c0-.18,0-.36,0-.54Z" transform="translate(-1.36 -55.51)"/><path class="cls-3" d="M162.77,414.24c0,.18,0,.36,0,.54,0,146.29,100.63,264.88,224.77,264.88S612.3,561.07,612.3,414.78c0-.18,0-.36,0-.54Z" transform="translate(-1.36 -55.51)"/><path class="cls-4" d="M154.57,436.66c2.66-1.33,5.35-2.59,8-4,7.88-4.2,16.38-4.69,25-4.35,3.19.12,5,2.16,6.06,4.8a7.91,7.91,0,0,1-1.12,8.12,8.42,8.42,0,0,1-7.3,3.46c-2.64,0-5.48-.81-8,.82l-3.42.67c-1-.17-1.92-.28-2.58.7-18.52,6.66-28.69,26.68-24.4,46,3.11,14,14.94,25.68,29.89,28.74,4.56,2.1,9.2,1.61,13.86.46l1.13-.42c1.11.59,2.24,1.25,2.14,2.71a74,74,0,0,0,.28,11c.13,1.74-.79,2.29-2.42,2.49-1.78.22-3.73-.31-5.29,1l-.74.15-2.93,0a2.61,2.61,0,0,0-.61-.16c-3-1.69-6.22-1-9.38-1.16a55.71,55.71,0,0,1-25.29-13c-6.61-6.09-12-13.28-14.76-22.07-2.52-7.9-4.39-16-3.55-24.23,1-10.14,4-19.71,10.92-27.65,1.7-2,3.22-4.09,4.83-6.15.44.06.64-.13.59-.58l1-1c.76.08,1.13-.32,1.28-1l1.56-.64c.37.14.62.07.6-.39l1.05-.92c.43.06.58-.13.5-.54l1.06-1c.36.1.51,0,.42-.4Z" transform="translate(-1.36 -55.51)"/><path class="cls-5" d="M189.9,521.5l-1.13.42-13.86-.46C160,518.4,148.13,506.74,145,492.72c-4.29-19.31,5.88-39.33,24.4-46,1,.18,1.94.37,2.58-.7l3.42-.67c3.76,1.36,7.59.83,11.39.32,4-.54,5,.2,5,4.17q0,33.84.05,67.67C191.9,519.26,191.71,520.74,189.9,521.5Z" transform="translate(-1.36 -55.51)"/><path class="cls-5" d="M637.15,522.81l-2.71,0a3.39,3.39,0,0,0-3.4-1c-3.85.72-4.69-1.17-4.68-4.61q.14-33.24,0-66.5c0-3.6,1.3-4.48,4.62-4.27a62.6,62.6,0,0,0,14.15-.3l1.79.28a1.4,1.4,0,0,0,1.85.88A30.85,30.85,0,0,1,662.81,456a39.26,39.26,0,0,1,11.4,31.19c-1,13.08-7.49,23.35-19.08,30.12-3.9,2.28-7.85,4.2-12.43,4.47A6.59,6.59,0,0,0,637.15,522.81Z" transform="translate(-1.36 -55.51)"/><path class="cls-6" d="M354.17,327.43c3.66,2.83,8.35,3.09,12.46,4.87A73.35,73.35,0,0,1,389,347.25a64.4,64.4,0,0,1,18.86,35.31c3.05,17.41.87,33.93-13.89,46.07-5.86,4.81-13.19,7-20.8,7.37-18.49.79-35.55-4-51.46-13.42-11.46-6.8-23.43-12.7-35.37-18.61-6.69-3.31-13.13-6.88-17.15-13.79-3.45-5.91-3.84-12-3.21-18.49,12.8-2.27,25.57-4.48,37.68-9.62a128.73,128.73,0,0,0,37.57-23.81c3-2.78,6.44-5.19,8.8-8.68A5.33,5.33,0,0,1,354.17,327.43Zm35.09,61.07h.25V374.06c0-6-1.51-11.58-5.54-16.26-5.6-6.52-12.62-9.58-21.22-8.63-2.06.23-3.61.55-2.95,3.73,2.61,12.53-2.86,21.11-15.39,24.59-2.41.66-3.19,1.8-3.14,4.21.14,6.14,0,12.29.05,18.44a26,26,0,0,0,8.2,19.59c7,6.68,15.34,7.43,23.85,4.73,9.59-3,15.05-10.19,15.82-20.34C389.59,398.94,389.26,393.71,389.26,388.5Z" transform="translate(-1.36 -55.51)"/><path class="cls-7" d="M465.61,435.93c-7.12,0-14.23-.55-20.62-3.89a34.64,34.64,0,0,1-18.1-22.79c-6.35-25,1.68-46.25,19.48-63.6,12.76-12.43,29.05-18.51,46.94-19.77,15.19-1.07,29.75,1,43.28,8.46,14.6,8.05,25.22,19.53,30.35,35.56,3.19,9.94-.48,21.65-10.53,28.54-12,8.25-25.71,13.37-38.2,20.67-10.88,6.37-22,11.84-34.32,14.76A79.27,79.27,0,0,1,465.61,435.93ZM495.72,387c-.25-5.76.25-11.77-.59-17.77-1.81-12.85-14.45-21.74-26.47-20-2,.29-4.13.41-3.12,3.62a18.77,18.77,0,0,1-14.3,24.35c-3,.65-3.9,1.91-3.82,4.84.19,6.15.22,12.31,0,18.45A24.17,24.17,0,0,0,464,424.61c13.66,4.78,30.58-5.81,31.24-19.76C495.54,399,495.5,393.11,495.72,387Z" transform="translate(-1.36 -55.51)"/><path class="cls-8" d="M411.73,532.18a22.39,22.39,0,0,1-22.64-22.35c0-5.07,2.33-9.7,4.59-14.09a225.14,225.14,0,0,1,13.66-22.61c3.4-5,5.25-4.07,7.85-.28,5.7,8.32,11.32,16.65,15.82,25.69C438.75,514.11,428.46,532.35,411.73,532.18Z" transform="translate(-1.36 -55.51)"/><path class="cls-9" d="M393.45,583.71a80.19,80.19,0,0,1-30.38-5.38A66.26,66.26,0,0,1,333.17,555c-4.32-6-2.94-11.53,3.16-14.13,3.9-1.65,6.89.26,9.29,2.95a131.33,131.33,0,0,0,10.27,10.3c8.44,7.54,18.51,11,29.44,12.28,5.77.65,11.58,1.25,17.48.19,4.37-.78,9.37,3.07,9.94,6.74.63,4-2.69,8-7.43,9.38C401.4,583.83,397.44,583.74,393.45,583.71Z" transform="translate(-1.36 -55.51)"/><ellipse class="cls-6" cx="355.09" cy="329.44" rx="43.04" ry="44.83"/><ellipse class="cls-6" cx="477.03" cy="329.44" rx="43.04" ry="44.83"/><path class="cls-2" d="M375.17,387.74c0,11.53-9.78,21.56-21,21.61-11.86,0-21.85-10.1-21.73-22.08.11-11.71,9.64-20.84,21.63-20.73S375.19,375.72,375.17,387.74Z" transform="translate(-1.36 -55.51)"/><path class="cls-10" d="M495.13,387.82c0,11.53-9.78,21.56-21,21.61-11.86.05-21.85-10.1-21.73-22.07.11-11.72,9.64-20.85,21.63-20.73S495.15,375.8,495.13,387.82Z" transform="translate(-1.36 -55.51)"/><ellipse class="cls-2" cx="723.32" cy="439.43" rx="75.32" ry="122.55"/><path class="cls-6" d="M344.49,375.31c0,8.47-7.18,15.84-15.43,15.87a16.19,16.19,0,0,1-16-16.22A15.44,15.44,0,0,1,329,359.73,15.23,15.23,0,0,1,344.49,375.31Z" transform="translate(-1.36 -55.51)"/><path class="cls-6" d="M463.72,376.8c0,8.47-7.18,15.83-15.43,15.87a16.18,16.18,0,0,1-16-16.22,15.43,15.43,0,0,1,15.89-15.23A15.23,15.23,0,0,1,463.72,376.8Z" transform="translate(-1.36 -55.51)"/><path class="cls-11" d="M632.19,539.08a1.85,1.85,0,0,0-1.9-1c-4.68.6-4.67-2.32-4.3-5.58.15-1.36.31-2.73.35-4.1.18-5.58.17-5.58,5.87-5.52.74,0,1.48-.09,2.23-.14l2.71,0c2,.19,3.93.51,5.55-1.06,4.58-.28,8.53-2.2,12.43-4.48,11.59-6.77,18-17,19.08-30.12A39.26,39.26,0,0,0,662.81,456a30.85,30.85,0,0,0-14.06-8.74c-.36-.82-1.1-.86-1.84-.88l-1.8-.28c-3.58-1.35-7.33-1.16-11.06-1.29-5.16-.18-9.3-4.59-8.7-9.23.54-4.16,5.77-7.74,10.25-7.42,6.58.47,13,1.1,19.35,3.37,4,1.45,7.2,4.11,10.88,6l2.91,2.13c0,.46.21.55.6.39a54.6,54.6,0,0,1,19.33,27.59,50.69,50.69,0,0,1,1.8,22.48,62.58,62.58,0,0,1-7.34,21.79C678.27,520.56,671.2,527,662.64,532a52.64,52.64,0,0,1-9.42,4.38,2.89,2.89,0,0,0-2.71.69l-2.36.88c-3.14.07-6.33-.35-9.33,1l-1.52.32a10.69,10.69,0,0,0-4.4,0A2.85,2.85,0,0,0,632.19,539.08Z" transform="translate(-1.36 -55.51)"/></svg>