<svg id="Calque_1" data-name="Calque 1" xmlns="http://www.w3.org/2000/svg" viewBox="0 0 674.94 995.5"><defs><style>.cls-1{fill:#ffa81f;}.cls-2{fill:#ca6634;}.cls-3{fill:#1843ed;}.cls-4{fill:#99cb98;}.cls-5{fill:#ff4200;}.cls-6{fill:#b23533;}.cls-7{fill:#a543ec;}.cls-8{fill:#fefefd;}.cls-9{fill:#fbfafc;}.cls-10{fill:#f9ebe3;}.cls-11{fill:#e5b39b;}.cls-12{fill:#fff;}.cls-13{fill:#6d0d3c;}</style></defs><title>avatar2</title><path class="cls-1" d="M405,739.2c-87.23,0-161.81,25.2-191.89,60.8H596.94C566.86,764.4,492.28,739.2,405,739.2Z" transform="translate(-66.06 195.5)"/><path class="cls-2" d="M454.44,793.94c0-16.5.07-33-.19-49.51-.09-6.09,1.16-9.75,8.12-11.42,56-13.44,101.76-43.32,138.34-87.51,2.35-2.84,4.67-5,8.47-5-.42-5.79,2.77-10.4,5.68-14.73,25.73-38.24,40.62-79.88,40.7-126.38,0-4.11,1.32-8.21,2-12.32q-.81-6.86-1.63-13.71-3.45-23.87-6.91-47.72C647,408.86,638,394.34,634,378.21c-1-3.18-6-5.73-1.51-9.76h0c-6.69,2.26-7-3.93-9-7.21-34.12-57.67-82.06-99.32-146.86-117-100.11-27.39-200-2.52-270.59,84.35-9.14,11.24-19.4,21.7-25.38,35.27-1.19,2.71-3.32,5.32-6.9,2.39-.77,0-1.14.35-1.12,1.15,3.09-.32,4,1.19,3.31,4C171.16,389,161.4,405,158.44,423.27c-2.17,16.7-6.62,33.08-7.07,50,1.22,13-8,13.4-17.28,15.34C100.07,495.75,78,516.8,69.26,550c-9.4,36,2.16,66.5,31.44,88.76,27.56,20.94,58.48,22.55,89,6.86,9.9-5.08,14.21-3.44,20.77,4.07,36.6,41.85,80.7,71.89,135.87,83.78,3.79.82,6.56,2.39,6.57,6.64.06,17,0,34,0,52.42l-.12-.11V800H454.3C454.35,798,454.39,796,454.44,793.94Zm-128-494.61a294.86,294.86,0,0,1,23.45-23.85c12.42-11.28,32-10.4,44,1.4,2.45,2.41,4.71,5,7.41,7.92.83-1.17,1.83-1.93,1.88-2.75.91-14.15,8.14-24.25,21.12-28.9,13.18-4.74,25.79-2.57,36.08,8,6.17,6.35,12.75,12.3,18.68,18.86,12.35,13.69,11.54,32.61-1.61,45.64-13.49,13.38-31.37,13.86-45.3.77-8.65-8.12-16.76-16.82-26.4-26.56-5,25.12-22.23,37.88-39.53,49.63-12.17,8.26-29.42,2.46-39.86-10.64C317.45,327.73,317.14,309.89,326.42,299.33ZM293.07,552.68c-39.69-6.43-65.74-31.59-79-69.41a89.36,89.36,0,0,1-1.62-53.35c2.08-7.8.92-12-5.63-17.26-16.41-13.15-18.26-32.78-6.21-49,6.37-8.55,15.4-11.22,25.29-11.41,15.78-.31,31.56-.08,47.34-.08V353c18.08,0,36.36-1.76,54.18.38,30.91,3.72,53.73,21.56,70.26,47.33,4.9,7.63,7.15,7.24,11.94-.08,21.4-32.64,51.27-49.6,91-48.57,25.77.67,51.57.05,77.35.16,17.87.08,28.36,6.63,33.76,20.71,5.78,15.06,2.35,28.79-11.51,39.95-5.89,4.75-7.32,8.45-5.62,16.18,12.45,56.63-18.14,108.74-74,122-43.6,10.38-82.44-2.67-109.83-44.08-6.57-9.93-8.59-8.7-14.45.27C372,544.63,336.22,559.67,293.07,552.68Zm150.22,67.88a175,175,0,0,1-36.54.7c-1.93.85-3.78,1.09-5.35-.73-11.52,1.67-23.06,1.29-34.61.3l-2.8-.28-4.72-1c-16.34-5.45-23.94-17-22.89-34.78,1-16.56,7.68-24.81,22.71-28l5.21-1.23c12-2.48,24.16-1.64,36.28-.91h6.17c12.13-.73,24.25-1.56,36.3.91l5.19,1.23c13.7,3.63,20.74,13.18,22.53,26.6,2.27,17-5.4,28.72-20.59,35.92Z" transform="translate(-66.06 195.5)"/><path class="cls-3" d="M338.91,198.21c-72.48-27.85-118.91-78.54-134-155.43C196.26-1.06,202.47-43.5,222.4-83.73a51.8,51.8,0,0,0,2.24-6.38c15.87-25.16,34.56-47.79,58.48-65.84,33-24.9,69.53-37.87,111.37-39.38,51.92-1.88,97.4,12.32,137.25,45.24,19.71,16.28,35.42,36.05,49.34,57.34-.59,1.56.12,2.3,1.62,2.54l.15.19c7.2,18.07,14.92,35.89,18.76,55.19,19.56,98.35-32.2,193.41-125.67,230.14-2.49,1-5,1.85-7.55,2.77-8.25-17.55-19.76-32-38.37-39.44C393.54,144,358.89,159.14,338.91,198.21Z" transform="translate(-66.06 195.5)"/><path class="cls-1" d="M453.73,770.78c-10.69,12-15.37,12.92-27.82,5.3-2.13.12-4.39-.17-5.91,1.86,0,13.3-5.25,19.61-16.24,19.4s-16.45-6.5-16.42-19.4c-1.52-2-3.78-1.74-5.9-1.86-12.4,7.59-16.7,6.79-28-5.15q-.09,14.54-.19,29.07H454Z" transform="translate(-66.06 195.5)"/><path class="cls-4" d="M571.39-63.83c-1.46-.23-2.14-1-1.57-2.47C571.44-66.17,572.14-65.46,571.39-63.83Z" transform="translate(-66.06 195.5)"/><path class="cls-5" d="M609.18,640.45c-.42-5.79,2.77-10.4,5.68-14.73,25.73-38.24,40.62-79.88,40.7-126.38,0-4.11,1.32-8.21,2-12.32,36.27.39,67.76,23.18,79,57.2,11.61,35-.37,72.42-30.51,95.27C680.31,659.05,636.25,661.72,609.18,640.45Z" transform="translate(-66.06 195.5)"/><path class="cls-3" d="M632.45,368.44c-6.69,2.26-7-3.93-9-7.21-34.12-57.67-82.06-99.32-146.86-117-100.11-27.39-200-2.52-270.59,84.35-9.14,11.24-19.4,21.7-25.38,35.27-1.19,2.71-3.32,5.32-6.9,2.39,8.36-27.06,26.57-47.59,45.09-67.89A252.17,252.17,0,0,1,336.47,225a286.9,286.9,0,0,1,134.33.09c31.57,9.5,60.7,23.78,86.66,44.26,32.71,25.8,58.56,57,75.61,95.24C633.79,366.19,634,367.36,632.45,368.44Z" transform="translate(-66.06 195.5)"/><path class="cls-5" d="M470.8,225.08A286.9,286.9,0,0,0,336.47,225c-1.24-9.11,2.66-17.76,2.44-26.78,20-39.07,54.63-54.17,91.11-39.57,18.61,7.44,30.12,21.89,38.37,39.44C468.19,207.17,472.19,215.88,470.8,225.08Z" transform="translate(-66.06 195.5)"/><path class="cls-3" d="M649,425.59C647,408.86,638,394.34,634,378.21l3.77-3.82c7.74,14.34,11,30.07,14.26,45.8,0,0,0,.32,0,.32,0,2.07.07,4.14.1,6.2Z" transform="translate(-66.06 195.5)"/><path class="cls-3" d="M649,425.59l3.09,1.12c5.38,15.21,5.74,30.83,3.83,46.62Q652.49,449.43,649,425.59Z" transform="translate(-66.06 195.5)"/><path class="cls-3" d="M637.75,374.39,634,378.21c-1-3.18-6-5.73-1.51-9.76C638.17,366.92,636.22,372.21,637.75,374.39Z" transform="translate(-66.06 195.5)"/><path class="cls-6" d="M652,420.51s0-.33,0-.32Z" transform="translate(-66.06 195.5)"/><path class="cls-3" d="M176,371.33C171.16,389,161.4,405,158.44,423.28l-3.07-4.95c3.84-16.4,6.88-33.06,15.87-47.75Z" transform="translate(-66.06 195.5)"/><path class="cls-3" d="M155.37,418.33l3.07,4.95c-2.17,16.69-6.62,33.07-7.07,50C148.76,454.67,151.62,436.47,155.37,418.33Z" transform="translate(-66.06 195.5)"/><path class="cls-3" d="M176,371.33l-4.72-.75,1.41-3.23C175.74,367,176.62,368.54,176,371.33Z" transform="translate(-66.06 195.5)"/><path class="cls-7" d="M273.28,353c18.08,0,36.36-1.76,54.18.38,30.91,3.72,53.73,21.56,70.26,47.33,4.9,7.63,7.15,7.24,11.94-.08,21.4-32.64,51.27-49.6,91-48.57,25.77.67,51.57.05,77.35.16,17.87.08,28.36,6.63,33.76,20.71,5.78,15.06,2.35,28.79-11.51,39.95-5.89,4.75-7.32,8.45-5.62,16.18,12.45,56.63-18.14,108.74-74,122-43.6,10.38-82.44-2.67-109.83-44.08-6.57-9.93-8.59-8.7-14.45.27-24.43,37.36-60.19,52.4-103.34,45.41-39.69-6.43-65.74-31.59-79-69.41a89.36,89.36,0,0,1-1.62-53.35c2.08-7.8.92-12-5.63-17.26-16.41-13.15-18.26-32.78-6.21-49,6.37-8.55,15.4-11.22,25.29-11.41,15.78-.31,31.56-.08,47.34-.08Zm121.88,100.6c.28-47.3-36.11-84.44-83.19-84.9s-85.63,37.23-85.87,84c-.23,46,37.28,84.46,82.63,84.78C357.8,537.79,394.87,501.82,395.16,453.59ZM496.8,537.45a84.55,84.55,0,0,0,84.44-84.3c.07-46.35-38-84.46-84.42-84.47-47.44,0-83.55,36.82-84.95,83.63C410.38,501.88,455.9,540.16,496.8,537.45Z" transform="translate(-66.06 195.5)"/><path class="cls-3" d="M405.74,299.9c-5,25.12-22.23,37.88-39.53,49.63-12.17,8.26-29.42,2.46-39.86-10.64-8.9-11.16-9.21-29,.07-39.56a294.86,294.86,0,0,1,23.45-23.85c12.42-11.28,32-10.4,44,1.4,2.45,2.41,4.71,5,7.41,7.92.83-1.17,1.83-1.93,1.88-2.75.91-14.15,8.14-24.25,21.12-28.9,13.18-4.74,25.79-2.57,36.08,8,6.17,6.35,12.75,12.3,18.68,18.86,12.35,13.69,11.54,32.61-1.61,45.64-13.49,13.38-31.37,13.86-45.3.77C423.49,318.34,415.38,309.64,405.74,299.9Z" transform="translate(-66.06 195.5)"/><path class="cls-8" d="M406.75,554.57c12.13-.73,24.25-1.56,36.3.91l.24,65.09a175.72,175.72,0,0,1-36.54.69Q405.31,587.92,406.75,554.57Z" transform="translate(-66.06 195.5)"/><path class="cls-8" d="M401.4,620.53c-11.52,1.67-23.06,1.29-34.61.3L364.74,618l-.44-62.53c12-2.48,24.16-1.64,36.28-.91Q401,587.54,401.4,620.53Z" transform="translate(-66.06 195.5)"/><path class="cls-9" d="M359.27,619.5c-16.34-5.45-23.94-17-22.89-34.78,1-16.56,7.68-24.81,22.71-28Z" transform="translate(-66.06 195.5)"/><path class="cls-9" d="M448.24,556.71c13.7,3.63,20.74,13.18,22.53,26.6,2.27,17-5.4,28.72-20.59,35.92-2-2.11-2.4-4.69-2.38-7.44Q448,584.25,448.24,556.71Z" transform="translate(-66.06 195.5)"/><path class="cls-10" d="M420,777.94c0,13.3-5.25,19.61-16.24,19.4s-16.45-6.5-16.42-19.4A93.07,93.07,0,0,0,420,777.94Z" transform="translate(-66.06 195.5)"/><path class="cls-10" d="M453.88,740.54l-.15,30.25c-10.69,12-15.37,12.91-27.82,5.29C438.07,766.47,448.63,755.59,453.88,740.54Z" transform="translate(-66.06 195.5)"/><path class="cls-10" d="M381.44,776.08c-12.4,7.59-16.7,6.79-28-5.15V739C359,757,369.79,766.88,381.44,776.08Z" transform="translate(-66.06 195.5)"/><path class="cls-11" d="M401.4,620.53q-.4-33-.82-66h6.17q-1.47,33.34,0,66.69C404.82,622.11,403,622.35,401.4,620.53Z" transform="translate(-66.06 195.5)"/><path class="cls-11" d="M448.24,556.71q-.21,27.54-.44,55.08c0,2.75.4,5.33,2.38,7.44l-6.89,1.33-.24-65.08Z" transform="translate(-66.06 195.5)"/><path class="cls-11" d="M359.27,619.5l-.18-62.79,5.21-1.23q.21,31.26.44,62.53l-.75,2.54Z" transform="translate(-66.06 195.5)"/><path class="cls-9" d="M364,620.55l.75-2.54,2.05,2.82Z" transform="translate(-66.06 195.5)"/><path class="cls-12" d="M395.16,453.59c-.29,48.23-37.36,84.2-86.43,83.86-45.35-.32-82.86-38.81-82.63-84.78.24-46.75,38.78-84.45,85.87-84S395.44,406.29,395.16,453.59ZM383,470c0-14.05-10.5-24.64-24.66-24.77s-25.14,10.54-25.28,24.23c-.13,14,11.54,25.86,25.39,25.8C371.59,495.24,383,483.52,383,470Z" transform="translate(-66.06 195.5)"/><path class="cls-12" d="M496.8,537.45c-40.9,2.71-86.42-35.57-84.93-85.14,1.4-46.81,37.51-83.63,84.95-83.63,46.4,0,84.49,38.12,84.42,84.47A84.55,84.55,0,0,1,496.8,537.45Zm-50.89-92.16c-13.76,0-25,11-25.69,23.6-1,17.72,14,26.73,26.1,26.43,13.18-.33,24.87-12.27,24.71-25.43A25.06,25.06,0,0,0,445.91,445.29Z" transform="translate(-66.06 195.5)"/><path class="cls-13" d="M383,470c0,13.48-11.42,25.2-24.55,25.26-13.85.06-25.52-11.81-25.39-25.8.14-13.69,11.27-24.37,25.28-24.23S383,456,383,470Z" transform="translate(-66.06 195.5)"/><path class="cls-13" d="M445.91,445.29A25.06,25.06,0,0,1,471,469.89c.16,13.16-11.53,25.1-24.71,25.43-12.07.3-27.06-8.71-26.1-26.43C420.9,456.32,432.15,445.31,445.91,445.29Z" transform="translate(-66.06 195.5)"/></svg>