<svg id="Calque_1" data-name="Calque 1" xmlns="http://www.w3.org/2000/svg" viewBox="0 0 1017.73 800"><defs><style>.cls-1{fill:#fece00;}.cls-2{fill:#ff5202;}.cls-3{fill:#5d2d12;}.cls-4{fill:#8b4a25;}.cls-5{fill:#8c6ab1;}.cls-6{fill:#fbfbfa;}.cls-7{fill:#30170b;}.cls-8{fill:#faf9f8;}</style></defs><title>avatar6</title><rect class="cls-1" x="241.05" width="532.11" height="334.35" rx="50.46"/><path class="cls-2" d="M-28.85,653.31l3.79-1.85c7.31-1.2,13.31-5.41,19.4-9.08,9.94-6,20.66-9.88,31.55-13.58,30.67-10.44,62.45-8,94-8.35,14.43-.14,14.71-.64,15.23-15.31.56-15.73-1.81-31.56,1.53-47.2l1.93-1c2.16.13,4.31.38,6.46.38q211.53,0,423.07,0c33.53,0,67.06.36,100.6.55q.16,23.76.35,47.51c.12,14.57.37,15.15,15.35,14.89,30.89-.55,61.64-1.46,91.8,7.87,30.94,9.58,57.6,25.3,79.92,49,11.46,12.15,18.89,27,29.41,39.67a.85.85,0,0,0,.06,1.15c4.77,9.51,6.68,20.31,13,29.14a.79.79,0,0,0,.07,1.06c.59,3.12,1,6.27,1.79,9.34,3.59,14.07,8.15,27.92,9.61,42.48H-107.66q4.48-17.21,9-34.41c8.16-31.3,20.78-60.26,42.61-84.79C-47.47,671.13-36.42,664-28.85,653.31Z" transform="translate(107.66)"/><path class="cls-3" d="M252.12,85.08l12.61,0c4.35,2.55,9.15,1.59,13.76,1.59,61.62.06,123.25-.54,184.87.23,45.88.58,92.22-5.22,137.38,8.11l.27.23c9.51,6.91,19.16,13.61,28.49,20.75,26.79,20.52,43.08,70.59,33.8,102.86-.9,3.15-1.11,4.81-5.49,4a85.87,85.87,0,0,0-41.6,1.84q-2.62-10.08-5.24-20.12l-.26-.37a74.58,74.58,0,0,0-13-23.26c-17.86-22.38-39.88-37.58-69.42-38.3s-59.12-.67-88.69-.62c-57.68.11-115.38,1.25-173,.41-37.79-.55-81.72,38.45-85,85.51-10.14-3.89-20.57-2.75-30.89-1.43-8.16,1.05-14-1.58-15.08-9.8-5.22-41.33,6.35-76.71,38.41-104.4,2.7-2.33,6.17-3.82,7.35-7.59a1.52,1.52,0,0,0,1.25-.66c8.09-4.57,19.92-1.54,25-12.3a.77.77,0,0,0,1.06-.16C223.07,88.83,237.89,88.94,252.12,85.08Z" transform="translate(107.66)"/><path class="cls-4" d="M103.53,313.77c-4.76-1.47-8.22-6-13.72-5.77q-4.05-5.73-8.11-11.44c-13.52-19.36-16.13-40.3-4.48-60.75,10.25-18,26.63-28.83,48.46-28.57A15.65,15.65,0,0,0,138,201.88c9.05-3.37,17.31-7.9,28.14-4.45,12.69,4,18.14-.94,18.58-14.19.28-8.21.08-16.43.1-24.65-.38-4.77-.76-9.55-1.14-14.31,3.25-47.06,47.18-86.06,85-85.51,57.68.84,115.38-.3,173.06-.41,29.57,0,59.14-.1,88.69.62s51.56,15.92,69.42,38.3a74.67,74.67,0,0,1,13,23.26s-.22.45-.22.45l.49-.08Q615.64,131,618.25,141q-.24,8.61-.47,17.2c0,10.45,0,20.88.08,31.32,0,3.2,0,8.1,3.82,7.8,13.69-1.09,26.5,5,40.05,4.09,5.51,4.45,11.67,5.77,18.85,6,30.06,1,49.16,20.95,52.93,41.34,5.22,28.2-.52,49.86-31.23,65.07-7,3.47-14.68,4.24-22,4.53-9.31.36-11.17,4.43-11.13,12.78.29,58.68.24,117.36.19,176,0,16.91-.36,33.81-.57,50.72-33.55-.19-67.08-.54-100.61-.55q-211.53-.07-423.07,0c-2.15,0-4.3-.25-6.45-.38-4.81-3.64-3.86-8.89-3.86-13.86,0-71.29-.12-142.57.18-213.85,0-8.61-1.86-13-11.3-11.89-5.77.69-11.46-.61-17-2.42Zm313.15-69.64c0,7.57-.89,15.29.25,22.69,1.19,7.74.9,15.77,4.28,23.24C436.67,324.21,468,339.32,503.8,328c21.51-6.8,35.28-22.11,40.88-44.6,4.89-19.6,4.11-39.44,3.38-59.2-1.37-37.21-24.43-61.38-61.23-65.53-33.65-3.79-63.32,19.53-68.46,53.14A178.45,178.45,0,0,0,416.68,244.13Zm-37.23,7.38c.43-7.91,1.42-15.83,1.15-23.72-.34-10,.63-20.35-4.32-29.62-17.87-33.47-36-41.82-70.84-39.1-21.48,1.68-45.53,22.56-51.85,43.21-6,19.61-2.5,39.35-3.74,59-2.06,32.33,22.53,69.27,63.38,70.37,22.26.61,48.26-13.72,59-32.9C380.9,283.34,379.26,267.55,379.45,251.51Zm45.76,100.58c.15-9.94-14.36-40.39-22.2-47.14-4.44-3.83-7.33-1.49-9.61,2.2-6.22,10.08-12,20.42-18.32,30.45-5.76,9.15-3.56,17.74,1,26.29,5.94,11.06,16.37,16,27.88,13.37C416.56,374.38,425,364.32,425.21,352.09Zm-45.39,70.69a44.69,44.69,0,0,1,4.83-.88c8.84-1,18-4.09,17-14.1-1-9.49-10.8-8.37-18.45-8.4-19.44,0-37.8-3.43-53.17-16.84-4.87-4.25-7.46-10.64-13.7-13.55-5.63-2.62-10.48-2.22-14.54,2.67-3.1,3.73-5.26,7.1-1.39,12.32C319.59,409.83,345.9,421.23,379.82,422.78Z" transform="translate(107.66)"/><path class="cls-5" d="M613,120.91l-.49.08s.22-.46.22-.45S613,120.91,613,120.91Z" transform="translate(107.66)"/><path class="cls-6" d="M416.68,244.13a178.45,178.45,0,0,1,1.69-32.31c5.14-33.61,34.81-56.93,68.46-53.14,36.8,4.15,59.86,28.32,61.23,65.53.73,19.76,1.51,39.6-3.38,59.2-5.6,22.49-19.37,37.8-40.88,44.6-35.83,11.31-67.13-3.8-82.59-37.95-3.38-7.47-3.09-15.5-4.28-23.24C415.79,259.42,416.68,251.7,416.68,244.13Zm71.14,6.81h.06c0-5.77.27-11.55-.05-17.3-.86-15.29-11.53-26.37-25.39-27.2-6.18-.37-9.67.8-8.66,8.11C455,223.62,452,232,443.35,235c-10.63,3.73-11.65,10.73-10.66,19.9.47,4.28,0,8.65.22,13,.87,15.83,11.71,26.38,27,26.43a27.83,27.83,0,0,0,27.88-27.16C488,261.76,487.82,256.34,487.82,250.94Z" transform="translate(107.66)"/><path class="cls-6" d="M379.45,251.51c-.19,16,1.45,31.83-7.19,47.24-10.77,19.18-36.77,33.51-59,32.9-40.85-1.1-65.44-38-63.38-70.37,1.24-19.65-2.26-39.39,3.74-59,6.32-20.65,30.37-41.53,51.85-43.21,34.8-2.72,53,5.63,70.84,39.1,5,9.27,4,19.64,4.32,29.62C380.87,235.68,379.88,243.6,379.45,251.51ZM365,249.83h.67c-.33-6.82-.46-13.65-1-20.44a25.44,25.44,0,0,0-27.2-23c-3.36.26-6.47.32-5.82,5.36,1.77,13.69-4.16,22.71-17.35,26.71-4,1.21-4.58,3.94-4.51,7.43.12,7.18-.2,14.39.27,21.55,1,15.63,12.95,26.94,27.95,26.94,14.67,0,25.8-10.63,27-26.19C365.4,262.06,365,255.93,365,249.83Z" transform="translate(107.66)"/><path class="cls-3" d="M425.21,352.09c-.18,12.23-8.65,22.29-21.21,25.17-11.51,2.63-21.94-2.31-27.88-13.37-4.6-8.55-6.8-17.14-1-26.29,6.3-10,12.1-20.37,18.32-30.45,2.28-3.69,5.17-6,9.61-2.2C410.85,311.7,425.36,342.15,425.21,352.09Z" transform="translate(107.66)"/><path class="cls-3" d="M379.82,422.78c-33.92-1.55-60.23-12.95-79.43-38.78-3.87-5.22-1.71-8.59,1.39-12.32,4.06-4.89,8.91-5.29,14.54-2.67,6.24,2.91,8.83,9.3,13.7,13.55,15.37,13.41,33.73,16.79,53.17,16.84,7.65,0,17.46-1.09,18.45,8.4,1.05,10-8.15,13.06-17,14.1A44.69,44.69,0,0,0,379.82,422.78Z" transform="translate(107.66)"/><path class="cls-6" d="M495.05,243.16c0,6.38.22,12.76,0,19.13-.73,18.09-16.83,32.08-36.64,32-20.11-.06-34.35-12.5-35.49-31.17-.31-5.09.32-10.24-.29-15.29-1.31-10.82,0-19.06,14-23.46C448,220.81,452,211,450.31,200.26c-1.32-8.62,3.26-10,11.38-9.57,18.21,1,32.24,14.05,33.37,32.08.42,6.77.07,13.59.07,20.39Z" transform="translate(107.66)"/><path class="cls-6" d="M370,246.1c0,7.77.49,15.58-.1,23.31-1.52,19.81-16.13,33.34-35.38,33.34-19.68,0-35.33-14.4-36.68-34.31-.62-9.11-.19-18.29-.36-27.44-.08-4.44.65-7.91,5.93-9.46,17.31-5.09,25.09-16.57,22.77-34-.85-6.42,3.23-6.5,7.63-6.83,18-1.32,34.13,11.75,35.7,29.35.77,8.65.93,17.35,1.36,26Z" transform="translate(107.66)"/><path class="cls-7" d="M350.52,263c0,13.76-11.67,25.73-25.07,25.79-14.15.06-26.07-12.05-25.93-26.35.13-14,11.51-24.87,25.82-24.74S350.55,248.68,350.52,263Z" transform="translate(107.66)"/><path class="cls-8" d="M313.9,248.19c0,10.11-8.57,18.91-18.42,18.95a19.31,19.31,0,0,1-19.05-19.36,18.41,18.41,0,0,1,19-18.17C306,229.71,313.92,237.65,313.9,248.19Z" transform="translate(107.66)"/><path class="cls-7" d="M498.9,264.6c0,13.76-11.66,25.73-25.07,25.79-14.14.06-26.07-12.05-25.93-26.35.14-14,11.51-24.88,25.82-24.74S498.93,250.25,498.9,264.6Z" transform="translate(107.66)"/><path class="cls-8" d="M462.28,249.76c0,10.11-8.57,18.91-18.42,18.95a19.33,19.33,0,0,1-19.05-19.36,18.42,18.42,0,0,1,19-18.18C454.4,231.28,462.3,239.22,462.28,249.76Z" transform="translate(107.66)"/></svg>