<svg id="Calque_1" data-name="Calque 1" xmlns="http://www.w3.org/2000/svg" viewBox="0 0 743.97 873.63"><defs><style>.cls-1{fill:#99cb98;}.cls-2{fill:#6e3c3a;}.cls-3{fill:#1753a0;}.cls-4{fill:#6d3c3a;}.cls-5{fill:#3d3d3d;}.cls-6{fill:#fcfdfc;}.cls-7{fill:#449fcb;}.cls-8{fill:#4f261d;}.cls-9{fill:#fff;}</style></defs><title>avatar3</title><path class="cls-1" d="M542.28-71.83c-1.06-.17-1.55-.7-1.14-1.8C542.32-73.53,542.83-73,542.28-71.83Z" transform="translate(-27.32 73.63)"/><path class="cls-2" d="M399.53,663.07c118,0,220.17-67.89,269.58-166.73H130C179.36,595.18,281.51,663.07,399.53,663.07Z" transform="translate(-27.32 73.63)"/><path class="cls-2" d="M395.88,83.76c-159.64,0-289,129.41-289,289.05a287.93,287.93,0,0,0,30.36,129.05H654.57a287.93,287.93,0,0,0,30.36-129C684.93,213.17,555.51,83.76,395.88,83.76Z" transform="translate(-27.32 73.63)"/><path d="M767.93,257.31c-3.75-36.28-10.9-71.73-24.3-105.77-11.79-29.95-28-57.2-50.42-80.46-28.46-29.57-63.13-48.73-102.5-59.64C560.37,3,529.32.08,498,.05Q401.65,0,305.37,0c-26,0-51.77,1.86-77.23,7.07C172.66,18.42,125.42,44,89.43,88.51c-21.23,26.26-35.76,56.11-45.53,88.3A391.92,391.92,0,0,0,27.4,299.26c.64,32.16.74,64.34,1,96.51Q29.1,499.9,29.69,604q.4,65.68.74,131.38c1.34,0,2.68.11,4,.11H222.1c2.52,0,66,14,68.51,14,3.1-15.28,60.94-.53,69.37-13.39,10.58-16.15-16.15,10.4,0,0,2.44-1.57,6.09-11.75,6.08-14.6-.07-23.35,31.6-16.82,31.64-40.16-14,0-133.32-103.51-147.29-103-8.72.32-17.25-1.06-25.66-2.33s-15.82-5.9-23.59-9.31c-8.93-3.9-16.63-9.76-23.68-16a89.41,89.41,0,0,1-12.83-14.47,130.15,130.15,0,0,1-14.34-24.65,89.61,89.61,0,0,1-4.7-15.25h0c-.63-2.7-1.22-5.41-1.84-8.11-2.88-12.41-1.39-24.82-1.44-37.19-.24-64.63-.11-129.26-.12-193.89,0-8.88,0-8.88,8.81-8.76a28.63,28.63,0,0,1,7-21.66c5.72-6.62,12.81-10.94,21.47-11.19,16.17-.47,32.36-.19,48.54-.23,2.95-6.84,6.41-13.45,9.55-20.19a127.24,127.24,0,0,1,7.92-14.63c.64-1,1.25-2.73,2.89-2.31,1.48.37.94,2,1.15,3.06,2.11,11.4,4.19,22.82,7.1,34,18.41,0,36.83.16,55.24.09a66.76,66.76,0,0,1,38.57,11.49,76,76,0,0,1,20.83,21.49c14.18,0,28.36,0,42.54,0a44.38,44.38,0,0,0,4.82-.69c1.77-.21,3.65-.58,4.41,1.77,1.24-.15,1.64-1.17,2.11-2.09a49.77,49.77,0,0,1,14.65-17.07,75.14,75.14,0,0,1,17.6-9.55c13.48-5.42,27.58-5.42,41.78-5.35q58.73.28,117.43,0c5.28,0,9.47,2.07,13.54,4.68a34.79,34.79,0,0,1,13.67,17.23c1.5,3.86.19,8,.66,12,9-2.22,9-2.22,9,7.24q0,108.12-.07,216.26a96.62,96.62,0,0,1-3.07,23.63h0a122.28,122.28,0,0,1-4.81,14.85,99.06,99.06,0,0,1-17.36,29.06c-6.13,7.07-12.73,14-20.45,18.93s-15.58,9.53-24.6,12.36c-7.48,2.34-15,4.09-22.59,6.08a21.22,21.22,0,0,1-5.29.54q-28.8.12-57.62.16c0,22.61.21,45.23,0,67.84,0,4.28-21.83,14.71-18.3,16.91,20.77,13-24.56,64.72-13.39,86.41,4.53,8.8,20.6,3.31,21.91,13.39,1.33.09,36.39-13.39,37.72-13.39,67.7,0,174.53-14,242.23-14,1.19,0,2.37-.1,3.56-.16q0-176.3-.08-352.59C771.16,340.91,772.24,299.05,767.93,257.31Z" transform="translate(-27.32 73.63)"/><path class="cls-3" d="M623.16,308.34l-1.34,0c-9.75.19-9.65.19-9.59,9.78.09,13.23.6,26.5-.18,39.69a82.93,82.93,0,0,1-5.89,25.55c-3.19,8-6.53,15.93-11.7,22.95-6.21,8.42-12.74,16.44-21.88,22-3.25,2-5.85,4.86-9.26,6.7a113.06,113.06,0,0,1-28.71,11.22c-9.62,2.19-19.14,1.29-28.71,1.59-11.51.35-22.15-3.15-32.54-7.67-2.52-1.1-5.09-2.11-7.64-3.16a5,5,0,0,0-5.29-3.47c-19.21-11.85-32.27-28.84-40.67-49.51-2-5-2.94-10.39-4.08-15.67-.88-4.11-4.05-7.42-9.23-8.25a39.14,39.14,0,0,1-6.38-1.69c-5.72-1.87-16.82,3.9-19.59,8.28-1.36,2.15-1.57,5.3-2.16,8-2.85,12.93-9,24-17.22,34.25a133.42,133.42,0,0,1-14.61,15.89c-10.4,9.44-22.67,15.21-35.92,19.67-13.94,4.69-28.14,3.88-42.19,2.94-7.46-.49-15.09-2.74-22.41-5.61-6.43-2.53-12.07-6.42-18.46-8.94-2.44-1-4-3.88-6.34-5.43-7.22-4.86-12.58-11.59-17.91-18.2-4.83-6-7.81-13.2-11.26-20.12-6.48-13-8.79-26.65-8.68-41,.09-11.77.12-23.53,0-35.3,0-1.48,1.29-3.55-2.76-3.64-10.1-.23-18.77-4.26-24.28-13.41-1.69-3.54-.63-8.4-5.09-10.62-.07-.9-.13-1.81-.19-2.71a28.67,28.67,0,0,1,7-21.67c5.72-6.62,12.81-10.93,21.47-11.18,16.17-.47,32.36-.2,48.54-.23l28.61,0c18.41,0,36.83.16,55.24.09a66.75,66.75,0,0,1,38.57,11.48,76.13,76.13,0,0,1,20.83,21.5c2.26,4.9,5.37,9.35,7,14.62a84.67,84.67,0,0,1,3.56,28.46c-.06,1.26.13,3.82.87,3.37,2.33-1.43,4.22.38,6.35,0a56.37,56.37,0,0,1,19.39,0c4.89.83,5.41.52,5.53-4.22.17-6.34-.19-12.63,1.39-19,1.27-5.09,3.4-10,4-15.23a4.89,4.89,0,0,0,3.45-5.3c.07-.55.15-1.11.22-1.67,1.24-.16,1.64-1.17,2.11-2.09a49.77,49.77,0,0,1,14.65-17.07,75.14,75.14,0,0,1,17.6-9.55c13.48-5.43,27.58-5.42,41.78-5.35q58.73.28,117.43,0c5.28,0,9.47,2.07,13.54,4.67a34.86,34.86,0,0,1,13.67,17.24c1.5,3.86.19,8,.66,12a42.5,42.5,0,0,1-7.73,16.92c-1.34,1.82-4.67,2.61-6.65,4.55A9.75,9.75,0,0,0,623.16,308.34ZM282.39,266.22v.09c-10.87,0-21.74-.24-32.61.05-22.4.58-44,17.81-48.46,39.88-3.84,18.79-3.38,38.08-.51,56.88,6.1,39.9,40.29,68.48,81.13,69.26,39.07.75,74.3-27.81,81.93-66.82,3.34-17.09,2.53-34.51,1.27-51.67-2-26.68-26.51-48.65-53.71-47.72C301.76,266.5,292.07,266.22,282.39,266.22Zm230.46.07v0c-10.87,0-21.74-.25-32.59.05-24,.66-46.08,20.49-49.43,44.28-1.88,13.32-1,26.76-.72,40.13.81,40.41,29.17,73.16,69.06,80.35,43.89,7.91,87.24-22.05,95.39-65.87,2.91-15.67,1.64-31.48,1.51-47.22-.22-27.58-23.5-50.95-51.08-51.69C534.29,266.05,523.56,266.29,512.85,266.29Zm101.79,5.3c-4.75,0-7.83,3.09-7.77,7.7a8.1,8.1,0,1,0,16.2.22C623.09,275.24,619.16,271.55,614.64,271.59Zm-433.63,0a8.07,8.07,0,1,0-.32,16.12,8.49,8.49,0,0,0,8-8A8.17,8.17,0,0,0,181,271.58Z" transform="translate(-27.32 73.63)"/><path class="cls-4" d="M419.34,290.46c-.64,5.26-2.77,10.14-4,15.23-1.58,6.35-1.22,12.64-1.39,19-.12,4.74-.64,5.05-5.53,4.22a56.37,56.37,0,0,0-19.39,0c-2.13.38-4-1.43-6.35,0-.74.45-.93-2.11-.87-3.37a84.67,84.67,0,0,0-3.56-28.46c-1.6-5.27-4.71-9.72-7-14.62,14.18,0,28.36,0,42.54,0a42,42,0,0,0,4.82-.68c1.77-.22,3.65-.59,4.41,1.77-.07.56-.15,1.12-.22,1.67C420.25,286,419,287.75,419.34,290.46Z" transform="translate(-27.32 73.63)"/><path class="cls-5" d="M151.21,285.18c4.46,2.22,3.4,7.08,5.09,10.62C152.33,293.35,150.94,289.66,151.21,285.18Z" transform="translate(-27.32 73.63)"/><path class="cls-5" d="M623.16,308.34a9.75,9.75,0,0,1,6.91-3.58C629,308.43,626.18,308.55,623.16,308.34Z" transform="translate(-27.32 73.63)"/><path class="cls-3" d="M460.43,433.51a5,5,0,0,1,5.29,3.47A4.49,4.49,0,0,1,460.43,433.51Z" transform="translate(-27.32 73.63)"/><path class="cls-6" d="M282.39,266.22c9.68,0,19.37.28,29-.05,27.2-.93,51.75,21,53.71,47.72,1.26,17.16,2.07,34.58-1.27,51.67-7.63,39-42.86,67.57-81.93,66.82-40.84-.78-75-29.36-81.13-69.26-2.87-18.8-3.33-38.09.51-56.88,4.5-22.07,26.06-39.3,48.46-39.88,10.87-.29,21.74-.05,32.61-.05Zm14,15.31a8.39,8.39,0,0,0,.68,1.51c8.72,11.21,10.17,23.4,3.51,35.85-6.87,12.83-18.18,18.34-32.68,16.79-2.74-.29-2.5,1.06-2.49,2.76,0,7.29-.09,14.58.08,21.87.51,22.09,17.75,39.76,40.12,41.25,21.85,1.46,41.9-14,44.75-35.59a208.39,208.39,0,0,0,.18-48.53c-2-19.57-15.56-33.43-34.87-37.18A34.82,34.82,0,0,0,296.39,281.53Z" transform="translate(-27.32 73.63)"/><path class="cls-6" d="M512.85,266.29c10.71,0,21.44-.24,32.14,0,27.58.74,50.86,24.11,51.08,51.69.13,15.74,1.4,31.55-1.51,47.22-8.15,43.82-51.5,73.78-95.39,65.87-39.89-7.19-68.25-39.94-69.06-80.35-.27-13.37-1.16-26.81.72-40.13,3.35-23.79,25.45-43.62,49.43-44.28,10.85-.3,21.72-.05,32.59-.05ZM530,342.73c0-7.39.12-13.5,0-19.6-.62-27.82-24.56-47.92-50.77-42.83-3.42.67-4.68.88-2.06,4.63,7.85,11.29,8.47,23.41,1.44,35.24s-17.88,17.12-31.65,15.41c-3-.37-2.82.89-2.8,2.82.05,7.45-.1,14.89.11,22.33.6,22,18,39.48,40.55,40.86,21.52,1.32,41.16-14.47,44.49-35.63C530.56,357.8,529.62,349.61,530,342.73Z" transform="translate(-27.32 73.63)"/><path class="cls-7" d="M614.64,271.59c4.52,0,8.45,3.65,8.43,7.92a8.1,8.1,0,1,1-16.2-.22C606.81,274.68,609.89,271.62,614.64,271.59Z" transform="translate(-27.32 73.63)"/><path class="cls-7" d="M181,271.58a8.17,8.17,0,0,1,7.72,8.15,8.49,8.49,0,0,1-8,8,8.07,8.07,0,1,1,.32-16.12Z" transform="translate(-27.32 73.63)"/><path class="cls-3" d="M419.34,290.46c-.31-2.71.91-4.43,3.45-5.3A4.89,4.89,0,0,1,419.34,290.46Z" transform="translate(-27.32 73.63)"/><path d="M530,342.73c-.37,6.88.57,15.07-.71,23.23-3.33,21.16-23,37-44.49,35.63-22.53-1.38-40-18.87-40.55-40.86-.21-7.44-.06-14.88-.11-22.33,0-1.93-.18-3.19,2.8-2.82,13.77,1.71,24.62-3.57,31.65-15.41s6.41-23.95-1.44-35.24c-2.62-3.75-1.36-4,2.06-4.63,26.21-5.09,50.15,15,50.77,42.83C530.11,329.23,530,335.34,530,342.73Z" transform="translate(-27.32 73.63)"/><path class="cls-3" d="M230.9,799.8c3.11-16.14,10.46-30.22,18.89-43.8,10.58-17.06,24.37-30.64,40.52-41.62,2.44-1.66,3.24-3.48,3.23-6.5-.07-24.65,0-49.31.07-74q94.77,0,189.56-.06c5.2,0,10.4.09,15.61.14,0,23.88.2,47.76,0,71.64,0,4.53,1.34,7.14,4.86,9.47,20.77,13.71,36.45,32.45,47.62,55.36,4.53,9.29,9.29,18.59,10.59,29.23-1.33.1-2.66.29-4,.29H234.46C233.27,800,232.08,799.87,230.9,799.8Z" transform="translate(-27.32 73.63)"/><path class="cls-2" d="M395.88,659.42c113.25,0,205.12-63.36,252.53-158.22L147,500C194.41,594.84,282.63,659.42,395.88,659.42Z" transform="translate(-27.32 73.63)"/><path class="cls-8" d="M376.21,544.38c-20.59.06-39.63-4.93-56.1-17.79a82.4,82.4,0,0,1-16.36-17.51c-4-5.66-2.95-11.22,2.24-14.71,4.68-3.16,10.57-1.88,14.31,3.27,11.59,16,27.28,24.32,46.82,26.61,7.38.86,14.48-.33,21.71-.28,5.87,0,9.1,2.74,9.79,8.16s-2.09,9.67-7.39,11.08a29.23,29.23,0,0,1-5.66,1.12C382.46,544.52,379.33,544.38,376.21,544.38Z" transform="translate(-27.32 73.63)"/><path class="cls-8" d="M399.42,485.22c5.56,0,7.56-.58,12.36-3.06,10.73-5.55,17.74-20.58,12.1-33.12a206.66,206.66,0,0,0-22.24-37.36c-2.14-2.92-3.35-2.12-4.87.25-5.86,9.11-12.18,18-17.45,27.41-3.28,5.88-6.69,12.23-6.58,19.23C373,473.66,385.73,485.93,399.42,485.22Z" transform="translate(-27.32 73.63)"/><ellipse class="cls-9" cx="274.24" cy="411.14" rx="59.63" ry="71.2"/><path d="M338.07,347.51c0,15.69-13.31,29.35-28.59,29.42-16.14.07-29.74-13.75-29.58-30.06.15-15.94,13.13-28.38,29.45-28.22C325.83,318.81,338.11,331.14,338.07,347.51Z" transform="translate(-27.32 73.63)"/><ellipse class="cls-9" cx="465.32" cy="413.57" rx="59.63" ry="71.2"/><path d="M516,347.62c0,15.7-13.3,29.35-28.59,29.42-16.14.07-29.74-13.75-29.58-30.06C458,331,471,318.61,487.31,318.76,503.8,318.92,516.07,331.25,516,347.62Z" transform="translate(-27.32 73.63)"/><rect x="98.99" y="248.67" width="539.15" height="73.02"/><path class="cls-4" d="M256.6,249.37l-28.61,0c2.95-6.84,6.41-13.46,9.55-20.2a128,128,0,0,1,7.92-14.62c.64-1,1.25-2.73,2.89-2.31,1.48.37.94,2,1.15,3.06C251.61,226.72,253.69,238.13,256.6,249.37Z" transform="translate(-27.32 73.63)"/></svg>