<svg id="Calque_1" data-name="Calque 1" xmlns="http://www.w3.org/2000/svg" viewBox="0 0 1087.46 825.33"><defs><style>.cls-1{fill:#de007d;}.cls-2{fill:#00cb82;}.cls-3{fill:#a26648;}.cls-4{fill:#f7c306;}.cls-5{fill:#faf9f8;}.cls-6{fill:#fbfaf9;}.cls-7{fill:#894120;}.cls-8{fill:#8a4221;}.cls-9{fill:#f7c206;}</style></defs><title>avatar4</title><rect class="cls-1" x="197.78" y="638.93" width="507.96" height="184.97"/><ellipse class="cls-2" cx="95.33" cy="606.92" rx="95.33" ry="143"/><path class="cls-3" d="M107.21,379.14c0,.21,0,.43,0,.64C107.2,553.88,241,695,406,695S704.79,553.88,704.79,379.78v-.64Z" transform="translate(83.46 56.33)"/><path class="cls-3" d="M401,16.31c-192.68,0-348.92,156-349.3,348.6h698.6C749.93,172.32,593.7,16.31,401,16.31Z" transform="translate(83.46 56.33)"/><path class="cls-3" d="M1004,364.48c0,.42-.14.6-.55.54Z" transform="translate(83.46 56.33)"/><path class="cls-3" d="M404.58,146.54c-211.91,0-383.74,171.58-384.17,383.39H788.74C788.32,318.12,616.49,146.54,404.58,146.54Z" transform="translate(83.46 56.33)"/><path class="cls-2" d="M-5.37,372.47c7.92,12.21,7,19.68-1.64,31.28-11.7,15.7-23.89,31.07-34.38,47.66-.6.95-.9,2.29-2.37,2.43-.08,1.78-.22,3.56-.22,5.34q0,92.1,0,184.2c0,1.79.06,3.57.1,5.35,4,3.67,6.38,8.5,9.49,12.81,16.47,22.79,37.57,40.25,61.83,54.11,14.06,8,28.71,15,43.38,21.74,8.83,4.1,12.93,10.26,13.34,19.6.16,3.55.06,7.15,1.26,10.59H231.79c1.47-6.27,5.25-11.48,7.94-17.18,8.39-17.78,16.32-35.82,25.58-53.15C280,669.75,293,641.39,308,614a7.72,7.72,0,0,0,.45-1.7c-17.81-.06-35.62-.19-53.44-.15-19.81,0-38.53-4.22-55.64-14.33-14.93-8.81-27.44-20.18-36.83-35.05-7.79-12.33-13.33-25.33-15.53-39.74-.44-2.93-1.63-4.59-5.06-3.78-1.66.4-3.52,0-5.29-.11l-.88.18c-1.18,1.4-2.34,1.35-3.49,0a3,3,0,0,0-.73-.19,27.83,27.83,0,0,1-11.16-1.39c-11.3-2.69-21.6-7.63-30.1-15.47C82.42,495,76.05,486.47,72.72,476c-3-9.4-5.22-19-4.22-28.84,1.22-12.07,4.78-23.45,13-32.9,2-2.34,3.84-4.88,5.75-7.32l.71-.69c.37-.4.75-.79,1.13-1.19.11-.91.53-1.43,1.53-1.21l1.85-.77.71-.47,1.26-1.09.6-.64,1.26-1.24c0-.35.14-.51.49-.47l2-1.71a4.6,4.6,0,0,0-1.84-3.87c-4.76-4-8-9.38-10.44-14.83A64.71,64.71,0,0,1,82,364.91H-10C-8.51,367.46-7,370-5.37,372.47Z" transform="translate(83.46 56.33)"/><path class="cls-2" d="M837,357.44c-11.16-17.87-21.9-36-33-53.93-4.19-6.75-6.11-13.67-4.54-21.61,2.27-11.51,4.53-23,6.22-34.62,2.84-19.47,3.67-38.87.2-58.53-4.25-24.07-14.09-45.57-27.67-65.45-9.94-14.54-22.59-26.62-36.86-37.08C723.1,72.84,702.9,64.11,681,58.82c-19.65-4.74-39.3-4.67-59.26-2.21C610.37,58,599.84,61.89,589,64.82c-9.15,2.47-16.26-.46-22.57-6.83-15.36-15.5-30.62-31.11-46.18-46.41-27-26.54-58.16-46.23-94.64-57.4C400-53.65,373.94-57.42,347.36-56c-44.21,2.28-85,15.31-121.8,40.51-37.63,25.75-64.83,59.73-82.68,101.43-2.21,5.18-3.85,10.6-5.93,15.84-3,7.59-8.9,11.76-16.75,13.06a231.29,231.29,0,0,0-38.08,9.13C52.6,134.1,27.46,150.74,7.44,175a178.55,178.55,0,0,0-34,65.51c-5.68,20-6.74,40.48-4.39,61a166.56,166.56,0,0,0,21,64.8H82a48.09,48.09,0,0,1,1.2-24c5.77-18.57,18.19-30.15,36.1-36.2,6.45-2.18,13.42-1.56,20.22-1.89,11-.54,19.11,6.5,28.64,9.71A185.24,185.24,0,0,0,200.26,322c10.8,1.6,21.65.55,32.47.88,14.23-2.53,28.43-5,41.89-10.7a143.26,143.26,0,0,0,41.76-26.46c3.35-3.1,7.16-5.78,9.78-9.66a6,6,0,0,1,4.6-2.39c-.17-4.87,4.37-6.8,6.54-10.2,2.68-4.22,6.3-7.84,9.24-11.91,6.91-9.55,16.21-15.43,27.79-16.62a35.44,35.44,0,0,1,24.72,6.9c6.68,4.77,11.81,11.25,18.7,15.76,15.11,9.91,31.76,14.53,49.51,12.33,15.93-2,30.44-8.05,42.45-19.65,8.64-8.34,14.24-18.48,20.07-28.61a9.35,9.35,0,0,1,.8-1.58c.88-1,1.2-2.9,2.63-2.74s2.12,2.18,2.38,3.42c2.26,10.92,7.56,20.54,13,30a127.21,127.21,0,0,0,28.1,34.18c6.95,5.84,14.1,11.65,22.18,15.28,13.81,6.21,28.29,10.87,44,7.14,4.31-1,8.57-2.15,12.77-3.52a3.22,3.22,0,0,1,3,.1c1.9,1.26,4,1.13,6.06.83,16.9-2.51,30.82,3.92,43,14.77,7.49,6.67,11.43,15.73,14.09,25.25a47.39,47.39,0,0,1,1,21.55h0a58.27,58.27,0,0,1-6.39,17.53,36.84,36.84,0,0,1-8.12,10.47c-1.63,1.41-3,2.93-2.13,5.34l3.48,2.53.7.46a64.93,64.93,0,0,1,23,32.84,60.21,60.21,0,0,1,2.14,26.76,74.19,74.19,0,0,1-8.74,25.93c-5.77,10.34-14.19,18-24.38,23.9a62.79,62.79,0,0,1-11.22,5.21c-.82,1.27-2,1.1-3.22.82l-2.81,1c-3.62,1.12-7.26,2.06-11.09,1.21l-1.82.39a3.7,3.7,0,0,1-5.23,0,3,3,0,0,0-.84-.21c-2.46.94-5.14-1.6-7.34.16s-1.18,4.74-1.66,7.14c-2.69,13.55-8.35,25.92-15.47,37.55-4.46,7.3-10.67,13.38-16.73,19.43-7.83,7.81-17.14,13.73-26.94,18.5a88.46,88.46,0,0,1-18.63,6.7A142.3,142.3,0,0,1,546,613.62c-14.71-.11-29.42,0-44.13,0-2.08,0-4.16,0-6.08,1,4.52,11.11,10.43,21.54,15.72,32.27,12.52,25.41,25.3,50.71,37.86,76.1,6.88,13.9,13.55,27.91,20.27,41.89a30.89,30.89,0,0,1,1.35,4.18H767.29c-.13-5.09,2.83-9.24,4.35-13.81a186.49,186.49,0,0,0,7-90.05c-.81-5-1.8-9.92-2.89-14.84-2-8.92.08-14.29,7.72-19.45a202.61,202.61,0,0,0,40.29-35.41c8.65-10,15.89-21.06,22.74-32.35.61-1,1.32-1.93,2-2.9V376.37C843.85,370.56,840.92,363.71,837,357.44Z" transform="translate(83.46 56.33)"/><path class="cls-3" d="M156.84,379.08c0,.21,0,.42,0,.64C156.83,553.82,276.6,695,424.33,695s267.5-141.13,267.5-315.23c0-.22,0-.43,0-.64Z" transform="translate(83.46 56.33)"/><path class="cls-3" d="M108.63,370.6c0,.22,0,.43,0,.64,0,174.1,119.76,315.23,267.5,315.23S643.61,545.34,643.61,371.24v-.64Z" transform="translate(83.46 56.33)"/><path class="cls-4" d="M98.87,397.28c3.17-1.58,6.37-3.08,9.49-4.74,9.37-5,19.49-5.58,29.79-5.18,3.79.14,5.95,2.57,7.21,5.71a9.44,9.44,0,0,1-1.33,9.67,10,10,0,0,1-8.69,4.11c-3.14,0-6.53-1-9.52,1l-4.08.8c-1.15-.2-2.28-.34-3.06.82-22,7.93-34.15,31.76-29.05,54.74,3.71,16.69,17.79,30.56,35.59,34.2,5.42,2.51,10.94,1.92,16.49.55l1.34-.5c1.32.71,2.67,1.5,2.55,3.22a88.82,88.82,0,0,0,.33,13.15c.16,2.07-.94,2.72-2.88,3-2.11.26-4.44-.37-6.3,1.22l-.87.18-3.5,0a3,3,0,0,0-.71-.19c-3.53-2-7.41-1.25-11.17-1.38-11.3-2.7-21.61-7.64-30.1-15.48-7.87-7.25-14.23-15.81-17.57-26.27-3-9.4-5.21-19-4.22-28.84,1.22-12.06,4.79-23.45,13-32.9,2-2.34,3.84-4.88,5.75-7.32.53.07.76-.16.71-.69.38-.4.76-.79,1.13-1.19a1.3,1.3,0,0,0,1.54-1.21l1.85-.76c.44.16.73.07.71-.48.42-.36.84-.72,1.25-1.09.51.08.69-.16.6-.64l1.26-1.23c.42.11.6,0,.5-.48Z" transform="translate(83.46 56.33)"/><path class="cls-2" d="M140.92,498.25l-1.34.5-16.49-.55c-17.8-3.64-31.88-17.51-35.59-34.2-5.1-23,7-46.81,29.05-54.73,1.15.21,2.31.44,3.06-.83l4.08-.8c4.47,1.62,9,1,13.55.38,4.79-.64,6,.24,6,5q0,40.27.05,80.54C143.3,495.58,143.07,497.35,140.92,498.25Z" transform="translate(83.46 56.33)"/><path class="cls-2" d="M673.19,499.81l-3.22,0a4,4,0,0,0-4.05-1.25c-4.58.85-5.58-1.4-5.57-5.49q.17-39.57,0-79.14c0-4.29,1.54-5.33,5.5-5.08a74.72,74.72,0,0,0,16.84-.35l2.13.33a1.65,1.65,0,0,0,2.2,1,36.64,36.64,0,0,1,16.72,10.4c10,10.31,14.7,23,13.58,37.13-1.24,15.56-8.91,27.79-22.71,35.84-4.64,2.71-9.34,5-14.79,5.32A7.84,7.84,0,0,0,673.19,499.81Z" transform="translate(83.46 56.33)"/><path class="cls-5" d="M336.42,267.28c4.36,3.38,9.93,3.69,14.83,5.81a87.62,87.62,0,0,1,26.64,17.78,76.8,76.8,0,0,1,22.44,42c3.62,20.72,1,40.39-16.53,54.82-7,5.74-15.7,8.38-24.76,8.77-22,.95-42.31-4.72-61.24-16-13.64-8.1-27.88-15.12-42.1-22.15-8-3.94-15.61-8.19-20.41-16.41-4.1-7-4.57-14.32-3.82-22,15.23-2.71,30.43-5.34,44.85-11.45A153.2,153.2,0,0,0,321,280.18c3.59-3.31,7.66-6.18,10.47-10.33A6.37,6.37,0,0,1,336.42,267.28ZM378.18,340h.29c0-5.73,0-11.46,0-17.18,0-7.2-1.79-13.78-6.58-19.36-6.67-7.75-15-11.39-25.27-10.27-2.44.27-4.28.66-3.5,4.44,3.1,14.91-3.41,25.12-18.32,29.26-2.87.8-3.79,2.15-3.73,5,.16,7.31.05,14.63.06,21.95a30.93,30.93,0,0,0,9.76,23.32c8.29,7.95,18.25,8.84,28.38,5.62,11.42-3.63,17.91-12.12,18.83-24.2C378.57,352.4,378.18,346.17,378.18,340Z" transform="translate(83.46 56.33)"/><path class="cls-6" d="M469.05,396.41c-8.48,0-16.94-.65-24.55-4.63A41.2,41.2,0,0,1,423,364.67c-7.56-29.77,2-55.05,23.19-75.69,15.18-14.8,34.56-22,55.86-23.53,18.07-1.27,35.41,1.19,51.51,10.06,17.37,9.58,30,23.24,36.12,42.32,3.79,11.84-.58,25.77-12.54,34-14.34,9.82-30.6,15.91-45.46,24.6C518.7,384,505.45,390.49,490.8,394A94.88,94.88,0,0,1,469.05,396.41Zm35.82-58.24c-.3-6.85.31-14-.7-21.15-2.15-15.29-17.19-25.86-31.5-23.8-2.41.35-4.91.49-3.71,4.3,4.12,13.06-3.54,26.08-17,29-3.6.78-4.64,2.29-4.54,5.77.22,7.31.26,14.65,0,22a28.76,28.76,0,0,0,19.74,28.71c16.26,5.69,36.39-6.91,37.18-23.51C504.66,352.43,504.62,345.45,504.87,338.17Z" transform="translate(83.46 56.33)"/><path class="cls-7" d="M404.92,511A26.63,26.63,0,0,1,378,484.36c0-6,2.77-11.54,5.46-16.76a264.9,264.9,0,0,1,16.26-26.91c4-6,6.25-4.85,9.33-.34,6.79,9.9,13.48,19.82,18.83,30.57C437.08,489.46,424.83,511.16,404.92,511Z" transform="translate(83.46 56.33)"/><path class="cls-8" d="M383.16,572.29a95.72,95.72,0,0,1-36.15-6.4,78.89,78.89,0,0,1-35.59-27.82c-5.13-7.09-3.5-13.72,3.77-16.81,4.64-2,8.19.3,11.05,3.5A155.59,155.59,0,0,0,338.47,537c10,9,22,13.12,35,14.6,6.87.79,13.78,1.49,20.81.23,5.2-.93,11.15,3.66,11.83,8,.74,4.77-3.21,9.5-8.85,11.17C392.63,572.43,387.91,572.32,383.16,572.29Z" transform="translate(83.46 56.33)"/><ellipse class="cls-5" cx="422.59" cy="392.07" rx="51.22" ry="53.36"/><ellipse class="cls-5" cx="567.72" cy="392.07" rx="51.22" ry="53.36"/><path class="cls-1" d="M361.41,339.07c0,13.72-11.63,25.65-25,25.71-14.1.06-26-12-25.85-26.27.13-13.94,11.47-24.81,25.74-24.67S361.44,324.75,361.41,339.07Z" transform="translate(83.46 56.33)"/><path class="cls-1" d="M504.17,339.17c0,13.72-11.63,25.65-25,25.71-14.11.06-26-12-25.86-26.27.14-13.94,11.48-24.81,25.74-24.67C493.48,314.07,504.2,324.85,504.17,339.17Z" transform="translate(83.46 56.33)"/><ellipse class="cls-2" cx="860.82" cy="522.97" rx="89.64" ry="145.84"/><path class="cls-5" d="M324.89,324.27c0,10.08-8.54,18.85-18.36,18.89a19.26,19.26,0,0,1-19-19.3,18.36,18.36,0,0,1,18.92-18.12C317,305.84,324.92,313.75,324.89,324.27Z" transform="translate(83.46 56.33)"/><path class="cls-5" d="M466.8,326c0,10.08-8.55,18.85-18.37,18.89a19.25,19.25,0,0,1-19-19.3,18.36,18.36,0,0,1,18.91-18.13C458.94,307.61,466.82,315.52,466.8,326Z" transform="translate(83.46 56.33)"/><path class="cls-9" d="M667.29,519.18a2.19,2.19,0,0,0-2.26-1.13c-5.57.7-5.56-2.77-5.12-6.65.18-1.62.37-3.25.42-4.88.22-6.64.2-6.63,7-6.57.88,0,1.77-.11,2.66-.16l3.22,0c2.33.23,4.68.61,6.6-1.27,5.46-.32,10.16-2.61,14.8-5.32,13.8-8.05,21.47-20.28,22.71-35.84,1.12-14.09-3.62-26.82-13.58-37.13A36.64,36.64,0,0,0,687,409.85c-.43-1-1.31-1-2.2-1l-2.13-.33c-4.26-1.62-8.73-1.39-13.16-1.54-6.15-.22-11.07-5.47-10.36-11,.64-5,6.86-9.22,12.2-8.84,7.83.56,15.53,1.31,23,4,4.76,1.72,8.57,4.9,12.94,7.15l3.47,2.53c0,.55.25.65.71.46a64.89,64.89,0,0,1,23,32.84,60.16,60.16,0,0,1,2.13,26.75,74.17,74.17,0,0,1-8.73,25.93c-5.78,10.34-14.2,18-24.38,23.9a62.74,62.74,0,0,1-11.22,5.21,3.46,3.46,0,0,0-3.22.82l-2.81,1.06c-3.73.07-7.53-.42-11.1,1.2l-1.81.39a12.51,12.51,0,0,0-5.24,0A4,4,0,0,0,667.29,519.18Z" transform="translate(83.46 56.33)"/></svg>