<svg id="Calque_1" data-name="Calque 1" xmlns="http://www.w3.org/2000/svg" viewBox="0 0 918 808.13"><defs><style>.cls-1{fill:#771e6a;}.cls-2{fill:#f93829;}.cls-3{fill:#8b4a25;}.cls-4{fill:#8b4b26;}.cls-5{fill:#fbfafa;}.cls-6{fill:#ca4848;}.cls-7{fill:#3f3f3f;}.cls-8{fill:#404040;}.cls-9{fill:#36525e;}.cls-10{fill:#cce9f3;}.cls-11{fill:#f8f8f8;}.cls-12{fill:#b581c0;}.cls-13{fill:#5d2d12;}.cls-14{fill:#902726;}</style></defs><title>avatar5</title><rect class="cls-1" x="187.41" y="631.85" width="484.09" height="176.28"/><ellipse class="cls-2" cx="90.85" cy="595.95" rx="90.85" ry="136.28"/><path class="cls-3" d="M127.64,429.13c0,.21,0,.41,0,.61,0,165.92,127.49,300.42,284.76,300.42s284.76-134.5,284.76-300.42c0-.2,0-.4,0-.61Z" transform="translate(53 8.82)"/><path class="cls-4" d="M407.64,83.36C224,83.36,75.13,232,74.76,415.57H740.53C740.16,232,591.27,83.36,407.64,83.36Z" transform="translate(53 8.82)"/><path class="cls-3" d="M411,207.46c-202,0-365.71,163.52-366.11,365.37H777.15C776.75,371,613,207.46,411,207.46Z" transform="translate(53 8.82)"/><path class="cls-2" d="M764.21,798H512.9c-1.36-4.7-2.65-9.44-4.1-14.11q-9.26-29.7-18.57-59.36c0-25,0-50-.12-75,0-4,1-5.23,5.12-5.18,19.91.2,39.82,0,59.73.1,15.6,0,30.2-3.8,44.19-10.54A102.68,102.68,0,0,0,631.25,610a109.34,109.34,0,0,0,21.64-36c2.94-8.06,5.52-16.53,5.56-25.06.28-66.7.18-133.41.18-200.11,0-5.11-1.06-6.21-6.12-6.17-14.44.13-27.08-5.07-39.1-12.54-4.25-2.64-7.86-6.27-12.61-8.1a8.65,8.65,0,0,0-4.62-3.73.6.6,0,0,1-.47-.47c0-.84-.44-1.28-1.32-1.23a.62.62,0,0,1-.44-.48c0-.84-.28-1.31-1.18-1.23l-4.29-4.61c-.06-1.39-.62-2.24-2.17-2a22.85,22.85,0,0,1-5-4.91c-.18-3.2-4.57-2.83-5-5.86a2.63,2.63,0,0,0-.6-2c-8.29-11.18-16.09-22.62-21.93-35.37a137.11,137.11,0,0,1-10.1-29.32c-1.3-6.31-2.73-12.77-2-19.38.11-.93.35-2.25-.93-2.59-.91-.25-1.52.67-2.08,1.33a82,82,0,0,0-6.21,7.27c-9.53,14-24.18,20.46-39.33,25.43-12.29,4-25.33,4.19-38.31,3.88a89.23,89.23,0,0,1-44-12.64c-4.64-2.72-8.87-6.27-14.37-7.63-18.16-4.49-40,5.43-50.33,22.33-5.09,8.37-8.46,17.39-12.24,26.29a3,3,0,0,0,.42,3.19c-2,.25-3.88-1.58-5.93-.31l-5.05-.62a1.87,1.87,0,0,0-2.78-.39,8.74,8.74,0,0,1-4.3-.46c-2.61-1.17-5.27-.9-7.93-.22l-8.59.47a2.26,2.26,0,0,0-3,.51l-6.74.69c-.53-.67-.87-.45-1.13.22l-8.41,2.28a9.39,9.39,0,0,0-7.25,2.15,111.52,111.52,0,0,0-30.33,15.74,121.1,121.1,0,0,0-37.47,44.3c-4.24,8.37-7.1,17.26-9.72,26.25l-.19,1.14c-.24,1.41-.42,2.83-.72,4.23-1.84,8.53-2,17.22-2.53,25.88-9-1.19-18.06-2.33-27.09-3.57-5.56-.76-5.67-.74-5.67,4.77q0,69.73,0,139.48a108.31,108.31,0,0,0,3.69,26.32,93.61,93.61,0,0,0,15.94,33.38c9.79,13.15,21.61,24.1,36.58,31.84,13.79,7.14,28.07,11.59,43.35,12,22.22.58,44.46.23,66.69.28q-.09,37.21-.2,74.43a24,24,0,0,1-.65,6.9c-5.21,16.7-10.75,33.3-15.85,50-2.22,7.31-5.08,14.46-6.41,22H98.42c-.28-4.49-.51-9-.83-13.46-.49-6.79-3.7-11.36-10-14.48-15.74-7.75-31.65-15.19-46.84-24C21,734.53,3.2,720.73-11.13,702.81c-5.5-6.87-10.61-14.06-15.9-21.11-.07-2.18-.2-4.35-.2-6.53q0-88.75,0-177.5c0-2.18.15-4.36.22-6.53,4.28-3.85,6.35-9.26,9.69-13.77C-8.09,464.9.89,452.23,10.31,439.91c5.59-7.31,7-14.83,3.22-23.2a48.88,48.88,0,0,0-3.55-6c-24.2-37.81-30.54-78.89-21.84-122.46C-8.81,273-3,258.51,4.43,244.74a161.41,161.41,0,0,1,64-65.3c18.62-10.47,38.69-16.6,59.58-20,12.07-2,20.41-7.38,23.82-19.61,1.31-4.72,3.5-9.21,5.47-13.74A223.54,223.54,0,0,1,278.52,8.32,230.56,230.56,0,0,1,346.46-8a224.2,224.2,0,0,1,97.2,13.37,218.44,218.44,0,0,1,74.31,46c17.79,16.63,34.61,34.32,51.67,51.72,7.24,7.38,15.16,9.38,24.91,5.65a142,142,0,0,1,28.66-7.31c25.49-4,50.53-2.11,74.78,6.48,34,12.06,61.55,33,81.64,63.09,18.06,27.06,27.13,57,26.38,89.66-.41,18-3.94,35.5-7.35,53-1.72,8.8-3.46,17.48,1.48,25.84q5.63,9.54,11.31,19.05c10.5,17.58,21.6,34.8,31.44,52.77.6,1.1.89,2.54,2.47,2.8v178c-3.07,4.9-6.05,9.87-9,14.83-3.61,6.09-8.81,11.07-11.77,17.55l0,.12c-1,1-2.18,1.87-3.14,2.94-11.1,12.42-23,23.9-37,33.17-2,1.31-4.63,1.94-5.45,4.64h0c-4.94,3-7.27,8.94-6,15,1.77,8.08,3.37,16.18,4.36,24.41C781.29,737,777.27,768.14,764.21,798Z" transform="translate(53 8.82)"/><path class="cls-3" d="M174.94,429.07v.61c0,165.92,114.13,300.42,254.92,300.42S684.79,595.6,684.79,429.68c0-.2,0-.4,0-.61Z" transform="translate(53 8.82)"/><path class="cls-3" d="M129,421c0,.21,0,.41,0,.62C129,587.52,243.12,722,383.91,722s254.93-134.5,254.93-300.41c0-.21,0-.41,0-.62Z" transform="translate(53 8.82)"/><ellipse class="cls-2" cx="832.57" cy="511.88" rx="85.43" ry="138.99"/><path class="cls-5" d="M605.94,442.67l-1-.51c-5.26-3.49-11.4-4.66-17.26-6.6-3.44-1.15-7.39-.74-10.38-3.29a93.26,93.26,0,0,0,8.48-22.92c4.17-19,2-37.32-6.79-54.51-13.06-25.49-34-40.38-62.63-43.7-20.71-2.4-39.42,3-56.23,15.21a4,4,0,0,0-2.56,2.31c-4.51,3-8.62,6.34-11.29,11.17a4.91,4.91,0,0,0-2.39,2.66c-2.1,1.57-3,4-4.46,6.05-1.14.49-1.27,1.5-1.32,2.55a4.63,4.63,0,0,0-1.45,3,9.62,9.62,0,0,0-2.8,5.61l-.69,1.2A28.92,28.92,0,0,0,429.6,371a2.23,2.23,0,0,0-.62-.14c-2,.84-1.88,2.06-.6,3.47l-.15,3.5c-1,.77-.62,1.71-.35,2.65a2.67,2.67,0,0,0-.69-.16c-2,.9-1.79,2.13-.51,3.52.15.85.29,1.7.44,2.56a32.22,32.22,0,0,0,.08,12.94,2,2,0,0,0,.17,2.54,4.46,4.46,0,0,0,.52,3.49c-.1.56-.2,1.12-.29,1.68-1.14.73-1,1.32.2,1.77.59,1.44,1.19,2.87,1.78,4.31a1.14,1.14,0,0,0,.35,1.68,4.92,4.92,0,0,0,1.45,4.34,1.89,1.89,0,0,0,.63,2.47c.81,3.15,1.81,6.21,4,8.76l0,1.79c0,2.53.59,5.34-.3,7.52-1.25,3-1.32,5.3,1.22,7.45-2.75,3.13-7.08,2.91-10.37,4.89l-5.09-8a.93.93,0,0,0-.67-1.18L417.7,438c.1-.73-.39-1.07-.92-1.39-2.35-3.56-4.66-7.14-7.06-10.67-2.25-3.32-3.85-3.31-6.06,0q-7.52,11.31-15,22.68a109.68,109.68,0,0,1-14.48-9.54,21.76,21.76,0,0,0,3.78-7.91c1.17-.48,1.16-1.51,1.19-2.53,1.65-.74,1.56-2,1-3.41.27-.51.54-1,.8-1.53,1.76-.79,1.06-2.33,1.12-3.63,1.92-1.75,1.07-4.22,1.66-6.31,1.44-.77,1.21-1.95.77-3.18.8-1.41.49-2.93.41-4.43a1.16,1.16,0,0,0,.6-1.6c1.05-2.58.65-5.22.33-7.86a2.38,2.38,0,0,0,0-3.24c.36-1.81.7-3.62-.46-5.29.56-1.21.66-2.35-.49-3.3-.15-2.09.84-4.36-1-6.19a2.88,2.88,0,0,0-.79-2.42c.75-1.8-.06-3.18-1.21-4.46.45-1.22.55-2.34-.83-3.07-1.05-5.93-4.19-10.89-7.33-15.86-16.3-25.76-40-38.42-70.16-38-19.06.25-36.12,7.23-50.48,20-14.57,12.95-23.71,28.92-27,48.33a83,83,0,0,0,1.2,33.63c.37,1.52,1.83,3.61-.72,4.88a86.16,86.16,0,0,0-23.37,8.9c-3.78,2.05-5,.69-5.89-2.72a154.25,154.25,0,0,1-4.76-30.28c.51-8.55.67-17.13,2.49-25.55.3-1.38.48-2.79.71-4.18a.74.74,0,0,0,.19-1.13c2.59-8.87,5.41-17.65,9.6-25.92a119.63,119.63,0,0,1,37-43.74,110.05,110.05,0,0,1,29.93-15.55l7.17-2.12,8.3-2.25c.47.41.83.29,1.12-.22l6.65-.68c1.09.45,2.13.57,3-.51l8.46-.45a17.93,17.93,0,0,0,7.85.21,8.59,8.59,0,0,0,4.23.45,2.25,2.25,0,0,0,2.75.39l5,.61L346.2,282l1.23.43.17.3.35,0a.5.5,0,0,0,.48.41l.06.35.34-.06,2.07.7,12.49,6.52,1.23.47L378.14,301a.4.4,0,0,0,.52.21,9.28,9.28,0,0,0,3.8,3.22l.06.23.22.06a5.3,5.3,0,0,0,3.19,3.14l.05.22.23,0c4.58,6.47,10.16,12.17,14.31,19,1.37,2.26,1.9,5.07,4.17,6.77l0,.23.22.06c1.95,2,2.25,2.13,3.23-.16,2.26-5.33,6.12-9.63,8.9-14.61l.18-.3,4.55-5.83.75-.94A48.39,48.39,0,0,0,430.9,304l.23-.23a2.82,2.82,0,0,0,2.35-2.24.25.25,0,0,0,.32-.25,57.64,57.64,0,0,0,9.05-6.79l1-.58c.43.18.59,0,.53-.42a.34.34,0,0,0,.37-.37,4.57,4.57,0,0,0,3.25-2,.25.25,0,0,0,.34-.25c3.8-2.46,8.35-3.56,11.88-6.52l1-.34a5.64,5.64,0,0,0,3.32-.58,103.8,103.8,0,0,1,52-6.89c3.53.42,7.06.87,10.59,1.31l.22.19.28,0,17.75,5.55,1.93.63a28.84,28.84,0,0,0,10.24,4.58.39.39,0,0,0,.49.32,1.75,1.75,0,0,0,1.87,1.67l1,.38.78.35a.29.29,0,0,0,.35.29c0,.39.12.55.5.33l1.74.74a7.44,7.44,0,0,0,5.1,3.36l0,0c1.49,3.14,4.75,4,7.35,5.78a22.46,22.46,0,0,0,5,4.85,2.79,2.79,0,0,0,2.15,2l4.23,4.56c-.12.89.38,1.2,1.17,1.21a.6.6,0,0,0,.44.48,1.07,1.07,0,0,0,1.3,1.21.58.58,0,0,0,.46.46c1.25,2.19,2.07,4.7,4.51,6l.2.24c.69,1.23,1.28,2.54,2.09,3.7,10.24,14.82,16.36,31.22,19.34,48.95a122.2,122.2,0,0,1,.08,39.25,99.66,99.66,0,0,1-7.47,25.37C609.3,442.36,608,443,605.94,442.67Z" transform="translate(53 8.82)"/><path class="cls-6" d="M569.42,296.2h2.45c.39,3,4.73,2.63,4.9,5.78C574.17,300.24,570.91,299.34,569.42,296.2Z" transform="translate(53 8.82)"/><path class="cls-6" d="M596,322.73c-2.44-1.3-3.26-3.81-4.51-6a8.6,8.6,0,0,1,4.57,3.69Q596,321.58,596,322.73Z" transform="translate(53 8.82)"/><path class="cls-6" d="M583.9,308.81a2.79,2.79,0,0,1-2.15-2C583.29,306.61,583.84,307.44,583.9,308.81Z" transform="translate(53 8.82)"/><path class="cls-6" d="M589.3,314.58c-.79,0-1.29-.32-1.17-1.21C589,313.29,589.35,313.76,589.3,314.58Z" transform="translate(53 8.82)"/><path class="cls-6" d="M591,316.27a1.07,1.07,0,0,1-1.3-1.21C590.6,315,591,315.45,591,316.27Z" transform="translate(53 8.82)"/><path class="cls-3" d="M196,366.71a.74.74,0,0,1-.19,1.13C195.91,367.46,196,367.09,196,366.71Z" transform="translate(53 8.82)"/><path class="cls-7" d="M460.12,326.35c16.81-12.2,35.52-17.61,56.23-15.21,28.67,3.32,49.57,18.21,62.63,43.7,8.8,17.19,11,35.47,6.79,54.51a93.26,93.26,0,0,1-8.48,22.92,12,12,0,0,1-6.58.31,78.36,78.36,0,0,0-15.5-1.78l-3.13-.19-3.87-.07-28.51-.28c.46-2.05,2.14-1.56,3.48-1.58,3.87-.05,7.75.08,11.62-.05,3.61-.12,7.3.59,10.91-.46-6.59-25.4-30.78-38-47.86-37.35l-2.12-.1-2.54-.42c-14.31-7.72-17.41-21.51-19.51-36.22-3.66,17-10.93,30.27-30.86,31.47,6.57,3.59,12,7.76,15.79,13.85l.07,1.53c-7.92,5.55-13.42,13-18,21.47-1.42,2.64-2.13,6-4.73,8-2.15-2.55-3.15-5.61-4-8.76.52-1,.55-1.9-.63-2.47a4.92,4.92,0,0,1-1.45-4.34c1.08-.81.76-1.33-.35-1.68-.59-1.44-1.19-2.87-1.78-4.31l.69-1.79c.81-.92.42-1.4-.6-1.66a4.46,4.46,0,0,1-.52-3.49c1.09-.93,1.14-1.78-.17-2.54a32.22,32.22,0,0,1-.08-12.94c1.36-.67,1.36-1.52.33-2.5l-.26-3.58a2.67,2.67,0,0,1,.69.16c1.38-.72,1.59-1.59.35-2.65l.15-3.5c1.13-1,.89-2.23.6-3.47a2.23,2.23,0,0,1,.62.14c2-3.09,4-6.16,3.56-10.12l.69-1.2a6,6,0,0,0,2.8-5.61,4.63,4.63,0,0,1,1.45-3c1.46-.32,1.39-1.44,1.32-2.55,1.45-2.05,2.36-4.48,4.46-6.05a2.35,2.35,0,0,0,2.39-2.66c2.67-4.83,6.78-8.2,11.29-11.16A2.38,2.38,0,0,0,460.12,326.35Zm73.48,13.73c-7.08-.06-12.37,3.25-15,9.45-2.26,5.43-1.86,10.91,2.2,15.24A103.45,103.45,0,0,1,532.45,379c4.22,6.52,13.38,8.11,20.28,4.09,6.58-3.84,8.95-12.39,5.75-19.54-3.48-7.78-8.91-14-15.2-19.47C540.47,341.67,537.11,339.92,533.6,340.08Z" transform="translate(53 8.82)"/><path class="cls-8" d="M383.79,413.75c-.59,2.09.26,4.56-1.66,6.31-1.77.77-1.12,2.3-1.12,3.63-.26.51-.53,1-.8,1.53-1.47.8-1,2.19-1,3.41,0,1,0,2.05-1.19,2.53-1.11.22-2,.66-2.36-1.24-1.46-7.2-5.09-13.41-9.88-18.86-3.34-3.8-7.14-7.2-10.73-10.78,3.39-6.56,9.08-10.77,15.56-14.07-.6-.73-.67-.91-.78-.93-.69-.12-1.4-.21-2.09-.32-7.69-1.23-14.63-3.89-19.42-10.45-3.6-4.91-5.52-10.55-6.77-16.45-.17-.81,0-1.9-1.2-1.91s-1.08,1.12-1.21,1.91-.17,1.71-.3,2.55C337,372.44,333,383,322.11,389.55c-2-.1-3.67,1.68-5.77,1.23a39.88,39.88,0,0,0-23.41,6.14c-5.74,3.51-11.83,6.76-15.28,13-.81,1.48-3.69,1.08-3.4,3.37.33,2.53,2.95,1,4.2,2a3.44,3.44,0,0,1,.62,1.08c-6.14.07-12.3.56-18.39.1-8.18-.62-16,1.66-24.08,2.06-3.36.16-6.63,2-9.94,3.15,2.55-1.27,1.09-3.36.72-4.88a83,83,0,0,1-1.2-33.63c3.26-19.41,12.4-35.38,27-48.33,14.36-12.77,31.42-19.75,50.48-20,30.18-.4,53.86,12.26,70.16,38,3.14,5,6.28,9.93,7.33,15.86-.2,1.15-.52,2.34.83,3.07,1.15,1.28,2,2.66,1.21,4.46-.55,1.07-.5,1.95.79,2.42,1.82,1.83.83,4.1,1,6.19-.82,1.24-1,2.4.49,3.3,1.16,1.67.82,3.48.46,5.29a2.17,2.17,0,0,0,0,3.24c.32,2.64.72,5.28-.33,7.86-.95.26-1.46.67-.6,1.6.08,1.5.39,3-.41,4.43C383.14,411.35,383.53,412.57,383.79,413.75ZM281.14,340.17a14,14,0,0,0-8.51,2.6c-7.59,5.07-13,11.94-16.92,20.1-3.75,7.75-1.62,16.33,5.24,20.38a15.16,15.16,0,0,0,20.58-4.56c3.2-5,7.1-9.2,11-13.52,4.23-4.65,5-10.18,2.44-15.9C292.36,343.39,287.57,340.43,281.14,340.17Z" transform="translate(53 8.82)"/><path class="cls-9" d="M436,430.41c2.6-2,3.31-5.37,4.73-8,4.56-8.49,10.06-15.92,18-21.47a1.36,1.36,0,0,0,.78-.27l.18.32c-.6,2,1,3.5,1.57,5.17,1.94,5.41,2.45,11.08,3.55,16.64.19.95.16,2.18,1.6,2,1.09-.11,1-1.18,1.25-2,1.14-3.79,2.31-7.57,3.47-11.36a.77.77,0,0,0,.36-.31,14.89,14.89,0,0,0,4.71-7.44,37.79,37.79,0,0,1,18.66-11.21c1.59.45,2.7.07,3-1.71,17.08-.66,41.27,11.95,47.86,37.35-3.61,1.05-7.3.34-10.91.46-3.87.13-7.75,0-11.62.05-1.34,0-3-.47-3.48,1.58h-9.23a38.35,38.35,0,0,0,2.74-4.81c2.2-5.5.51-10.54-4.13-12.85-4.87-2.41-11.39-.41-15,4.83s-4.1,11.81.5,15c-2.53,2.51-5.73.85-8.58,1.36-5.84-1-11.16,2.55-17,1.89-1.75-.2-3,1.38-3.59,3.1-5.26-.12-10,1.81-14.56,4a13.06,13.06,0,0,1-6.15,1.36c-3.64-3.44-5.47-8.19-8.63-12Z" transform="translate(53 8.82)"/><path class="cls-9" d="M279.07,416.36a3.44,3.44,0,0,0-.62-1.08c-1.25-1-3.87.55-4.2-2-.29-2.29,2.59-1.89,3.4-3.37,3.45-6.25,9.54-9.5,15.28-13a39.88,39.88,0,0,1,23.41-6.14c.4,2.1,2.26,1.88,3.7,2.26a32.34,32.34,0,0,1,17.4,11A48.21,48.21,0,0,1,346,420.21c.31.93.4,2.22,1.66,2.17s1.15-1.41,1.28-2.34c1-6.79,3.12-13.27,5.41-19.71l.36-.05H355c3.59,3.58,7.39,7,10.73,10.78,4.79,5.45,8.42,11.66,9.88,18.86.39,1.9,1.25,1.46,2.36,1.24a21.76,21.76,0,0,1-3.78,7.91c-4,0-6.57-3.37-10.26-4.53-7.55-2.37-14.46-7.1-22.09-8.76-7.17-1.56-13.94-4.26-21.07-5.72-1.57-4.84-5.18-7.41-9.94-8.24-4.52-.79-8,1.24-10.55,4.95Z" transform="translate(53 8.82)"/><path class="cls-10" d="M494.54,432.44c-4.6-3.21-4.05-9.92-.5-15s10.17-7.24,15-4.83c4.64,2.31,6.33,7.35,4.13,12.85a38.35,38.35,0,0,1-2.74,4.81Z" transform="translate(53 8.82)"/><path class="cls-6" d="M605.94,442.67c2.09.35,3.36-.31,4.31-2.43a99.66,99.66,0,0,0,7.47-25.37,122.2,122.2,0,0,0-.08-39.25c-3-17.73-9.1-34.13-19.34-48.95-.81-1.16-1.4-2.47-2.09-3.7,2.92.59,3.84,3.37,5.11,5.34a123.55,123.55,0,0,1,18.62,50.52,112.1,112.1,0,0,1-.87,37,108.5,108.5,0,0,1-8,25.76C609.66,444.53,608.19,445,605.94,442.67Z" transform="translate(53 8.82)"/><path class="cls-10" d="M300.31,416.77c2.55-3.71,6-5.74,10.55-4.95,4.76.83,8.37,3.4,9.94,8.24C313.93,419.21,307,418.51,300.31,416.77Z" transform="translate(53 8.82)"/><path class="cls-6" d="M461.24,284c9.44-5.11,19.82-6.86,30.23-8.58,11.17-1.84,22.19,0,33.25.92a2.6,2.6,0,0,1,2.4,1.5c-3.54-.44-7.07-.89-10.6-1.31a103.8,103.8,0,0,0-52,6.89A5.64,5.64,0,0,1,461.24,284Z" transform="translate(53 8.82)"/><path class="cls-6" d="M386.21,308.15c4.22,1.48,5.94,5.64,8.57,8.64,4.35,4.95,8.51,10.34,9.91,17.14-2.27-1.71-2.8-4.52-4.17-6.78C396.37,320.32,390.79,314.62,386.21,308.15Z" transform="translate(53 8.82)"/><path class="cls-6" d="M404.94,334.21c3.19-1.23,3.48-4.69,5.33-7,2.18-2.68,3-6.52,6.8-7.82-2.78,5-6.64,9.29-8.9,14.62C407.19,336.34,406.89,336.21,404.94,334.21Z" transform="translate(53 8.82)"/><path class="cls-6" d="M364.62,291.11c5.27,2.26,10.43,4.67,13.52,9.91Z" transform="translate(53 8.82)"/><path class="cls-6" d="M350.9,284.12c5,.66,9.36,2.39,12.49,6.52Z" transform="translate(53 8.82)"/><path class="cls-6" d="M448.36,290.81c2.61-4.64,7.68-4.79,11.88-6.52C456.71,287.25,452.16,288.35,448.36,290.81Z" transform="translate(53 8.82)"/><path class="cls-6" d="M422.55,312.37A15,15,0,0,1,430.9,304,48.39,48.39,0,0,1,422.55,312.37Z" transform="translate(53 8.82)"/><path class="cls-6" d="M433.8,301.26c2.2-3.35,5-5.89,9.05-6.79A57.64,57.64,0,0,1,433.8,301.26Z" transform="translate(53 8.82)"/><path class="cls-9" d="M433.16,360.91c.48,4-1.54,7-3.56,10.12A28.92,28.92,0,0,1,433.16,360.91Z" transform="translate(53 8.82)"/><path class="cls-6" d="M547.29,284.14c4.11,0,7.07,2.52,10.24,4.58A28.84,28.84,0,0,1,547.29,284.14Z" transform="translate(53 8.82)"/><path class="cls-6" d="M417.25,319.14c-.13-3.23,1.94-4.75,4.55-5.83Z" transform="translate(53 8.82)"/><path class="cls-9" d="M436.65,354.1a6,6,0,0,1-2.8,5.61A9.62,9.62,0,0,1,436.65,354.1Z" transform="translate(53 8.82)"/><path class="cls-6" d="M564.29,292.8a6.77,6.77,0,0,1,5.1,3.36A7.44,7.44,0,0,1,564.29,292.8Z" transform="translate(53 8.82)"/><path class="cls-6" d="M378.66,301.23a3.53,3.53,0,0,1,3.8,3.22A9.28,9.28,0,0,1,378.66,301.23Z" transform="translate(53 8.82)"/><path class="cls-6" d="M444.77,293.1c0-2.35,1.62-2.23,3.25-2A4.57,4.57,0,0,1,444.77,293.1Z" transform="translate(53 8.82)"/><path class="cls-6" d="M382.74,304.74a3.46,3.46,0,0,1,3.19,3.14A5.3,5.3,0,0,1,382.74,304.74Z" transform="translate(53 8.82)"/><path class="cls-10" d="M429,370.89c.29,1.24.53,2.48-.6,3.47C427.1,373,427,371.73,429,370.89Z" transform="translate(53 8.82)"/><path class="cls-9" d="M385.9,396.68a2.17,2.17,0,0,1,0-3.24A2.38,2.38,0,0,1,385.9,396.68Z" transform="translate(53 8.82)"/><path class="cls-10" d="M427.19,380.35c.09,1.19.17,2.38.26,3.58a4.9,4.9,0,0,1-.77-.06C425.4,382.48,425.19,381.25,427.19,380.35Z" transform="translate(53 8.82)"/><path class="cls-9" d="M385.42,388.15c-1.52-.9-1.31-2.06-.49-3.3C386.08,385.8,386,386.94,385.42,388.15Z" transform="translate(53 8.82)"/><path class="cls-6" d="M431.13,303.75c-.24-1.83.53-2.59,2.36-2.25A2.84,2.84,0,0,1,431.13,303.75Z" transform="translate(53 8.82)"/><path class="cls-9" d="M460.12,326.35a2.38,2.38,0,0,1-2.56,2.32A4,4,0,0,1,460.12,326.35Z" transform="translate(53 8.82)"/><path class="cls-9" d="M446.27,339.83a2.35,2.35,0,0,1-2.39,2.66A4.91,4.91,0,0,1,446.27,339.83Z" transform="translate(53 8.82)"/><path class="cls-9" d="M383.79,413.75c-.26-1.18-.65-2.4.77-3.18C385,411.8,385.23,413,383.79,413.75Z" transform="translate(53 8.82)"/><path class="cls-9" d="M439.42,348.54c.07,1.11.14,2.23-1.32,2.55C438.15,350,438.28,349,439.42,348.54Z" transform="translate(53 8.82)"/><path class="cls-9" d="M428.23,377.86c1.24,1.06,1,1.93-.35,2.65C427.61,379.57,427.28,378.63,428.23,377.86Z" transform="translate(53 8.82)"/><path class="cls-9" d="M426.68,383.87a4.9,4.9,0,0,0,.77.06c1,1,1,1.83-.33,2.5C427,385.57,426.83,384.72,426.68,383.87Z" transform="translate(53 8.82)"/><path class="cls-9" d="M382,371.78c-1.35-.73-1-1.92-.83-3.07C382.5,369.44,382.4,370.56,382,371.78Z" transform="translate(53 8.82)"/><path class="cls-9" d="M427.2,399.37c1.31.76,1.26,1.61.17,2.54A2,2,0,0,1,427.2,399.37Z" transform="translate(53 8.82)"/><path class="cls-6" d="M558,289c1.05.08,1.86.43,1.88,1.67A1.75,1.75,0,0,1,558,289Z" transform="translate(53 8.82)"/><path class="cls-9" d="M429.58,413.16c1.11.35,1.43.87.35,1.68A1.14,1.14,0,0,1,429.58,413.16Z" transform="translate(53 8.82)"/><path class="cls-9" d="M385,406.14c-.86-.93-.35-1.34.6-1.6A1.16,1.16,0,0,1,385,406.14Z" transform="translate(53 8.82)"/><path class="cls-9" d="M427.89,405.4c1,.26,1.41.74.6,1.66l-.89,0C427.69,406.52,427.79,406,427.89,405.4Z" transform="translate(53 8.82)"/><path class="cls-10" d="M427.6,407.08l.89,0-.69,1.79C426.59,408.4,426.46,407.81,427.6,407.08Z" transform="translate(53 8.82)"/><path class="cls-9" d="M384,378.66c-1.29-.47-1.34-1.35-.79-2.42A2.88,2.88,0,0,1,384,378.66Z" transform="translate(53 8.82)"/><path class="cls-6" d="M560.92,291.09l.78.35Z" transform="translate(53 8.82)"/><path class="cls-6" d="M443.87,293.89a.5.5,0,0,1,.54-.42C444.46,293.91,444.3,294.07,443.87,293.89Z" transform="translate(53 8.82)"/><path class="cls-6" d="M562.05,291.73a.44.44,0,0,1,.5.33C562.17,292.28,562,292.12,562.05,291.73Z" transform="translate(53 8.82)"/><path class="cls-11" d="M533.6,340.08c3.51-.16,6.87,1.59,9.68,4,6.29,5.48,11.72,11.69,15.2,19.47,3.2,7.15.83,15.7-5.75,19.54-6.9,4-16.06,2.43-20.28-4.09a103.45,103.45,0,0,0-11.6-14.27c-4.06-4.33-4.46-9.81-2.2-15.24C521.23,343.33,526.52,340,533.6,340.08Z" transform="translate(53 8.82)"/><path class="cls-11" d="M458.61,399.4c-3.76-6.09-9.22-10.26-15.79-13.85,19.93-1.2,27.2-14.43,30.86-31.47,2.1,14.71,5.2,28.5,19.51,36.22a10,10,0,0,1-1.7.27c-9.66-.06-18.77,1.92-27.18,6.93-1.72,1-3.13,1.9-3.5,3.93l-1.17-.45-.18-.32C459.51,400,459.37,399.5,458.61,399.4Z" transform="translate(53 8.82)"/><path class="cls-10" d="M460.81,401.43c.37-2,1.78-2.9,3.5-3.93,8.41-5,17.52-7,27.18-6.93a10,10,0,0,0,1.7-.27l2.54.42-.92,1.81a37.79,37.79,0,0,0-18.66,11.21c-2.07,2.16-4.78,3.92-4.71,7.44a.77.77,0,0,1-.36.31c-3.36,2-1.78,6.93-5.57,9.34C465.24,413.72,462.83,407.63,460.81,401.43Z" transform="translate(53 8.82)"/><path class="cls-12" d="M494.81,392.53l.92-1.81,2.12.1C497.51,392.6,496.4,393,494.81,392.53Z" transform="translate(53 8.82)"/><path class="cls-12" d="M458.61,399.4c.76.1.9.62.85,1.26a1.36,1.36,0,0,1-.78.27C458.66,400.42,458.63,399.91,458.61,399.4Z" transform="translate(53 8.82)"/><path class="cls-11" d="M281.14,340.17c6.43.26,11.22,3.22,13.86,9.1,2.58,5.72,1.79,11.25-2.44,15.9-3.93,4.32-7.83,8.54-11,13.52A15.16,15.16,0,0,1,261,383.25c-6.86-4.05-9-12.63-5.24-20.38,3.94-8.16,9.33-15,16.92-20.1A14,14,0,0,1,281.14,340.17Z" transform="translate(53 8.82)"/><path class="cls-11" d="M355,400.28h-.37l-.36.05a7.88,7.88,0,0,1-1.62-.53c-8.5-5.1-17.48-8.72-27.53-9.05-1.18,0-2.3-.11-3-1.2C333,383,337,372.44,338.82,360.61c.13-.84.16-1.71.3-2.55s0-1.91,1.21-1.91,1,1.1,1.2,1.91c1.25,5.9,3.17,11.54,6.77,16.45,4.79,6.56,11.73,9.22,19.42,10.45.69.11,1.4.2,2.09.32.11,0,.18.2.78.93C364.11,389.51,358.42,393.72,355,400.28Z" transform="translate(53 8.82)"/><path class="cls-10" d="M322.11,389.55c.74,1.09,1.86,1.16,3,1.2,10.05.33,19,3.95,27.53,9.05a7.88,7.88,0,0,0,1.62.53c-2.29,6.44-4.43,12.92-5.41,19.71-.13.93.1,2.28-1.28,2.34s-1.35-1.24-1.66-2.17A48.21,48.21,0,0,0,337.44,404,32.34,32.34,0,0,0,320,393c-1.44-.38-3.3-.16-3.7-2.26C318.44,391.23,320.07,389.45,322.11,389.55Z" transform="translate(53 8.82)"/><path class="cls-12" d="M460.81,401.43c2,6.2,4.43,12.29,4.7,19.4,3.79-2.41,2.21-7.37,5.57-9.34-1.16,3.79-2.33,7.57-3.47,11.36-.24.79-.16,1.86-1.25,2-1.44.15-1.41-1.08-1.6-2-1.1-5.56-1.61-11.23-3.55-16.64-.6-1.67-2.17-3.12-1.57-5.17Z" transform="translate(53 8.82)"/><path class="cls-12" d="M471.44,411.18c-.07-3.52,2.64-5.28,4.71-7.44A14.89,14.89,0,0,1,471.44,411.18Z" transform="translate(53 8.82)"/><path class="cls-13" d="M422.21,446.19q2.44,3.85,4.9,7.7c1.77,4.46,3.71,8.86,5.28,13.38,1.38,4,.25,8-1,11.74-4.72,14.33-19,20.56-32.11,15.72-10.93-4-19.37-16.56-14.95-30,1.67-5,4.76-9.24,6.37-14.19,4.79-7.27,9.55-14.54,14.37-21.79,2.13-3.21,3.66-3.22,5.83,0,2.3,3.39,4.52,6.84,6.78,10.26-.26.8,0,1.28.88,1.33l3,4.71A1,1,0,0,0,422.21,446.19Z" transform="translate(53 8.82)"/><path class="cls-14" d="M289.33,559.45c-6.54-9.59-6.76-22.61-.51-31.67,5.39-7.83,20-10.45,28.23-5.46,5.66,3.45,9.28,8.29,12.32,14a53.82,53.82,0,0,0,16,18.37,20.24,20.24,0,0,0,15.19,3.13,213.38,213.38,0,0,0,21.83-5.27c6.58-2.09,13.16,1.25,18,6,7.36,7.11,6.26,15.61,6.06,24.16-.09,4.08-3.86,6.13-6.25,8.43a39.85,39.85,0,0,1-22,10.92,7.23,7.23,0,0,0-3.73,2c-.05-2.07.2-4.08-.8-6.13-4.81-9.9-10.46-19.11-19.24-26.1C334.93,556.16,313.31,551.62,289.33,559.45Z" transform="translate(53 8.82)"/><path class="cls-6" d="M289.33,559.45c24-7.83,45.6-3.29,65.18,12.29,8.78,7,14.43,16.2,19.24,26.1,1,2,.75,4.06.8,6.13l-16,.06c-7.93,0-15.28-2.27-22.81-4.63-9.23-2.88-16.89-8.43-24.61-13.49-5.05-3.31-10.18-7.63-13.73-13.52C294.84,568.09,290.54,564.76,289.33,559.45Z" transform="translate(53 8.82)"/><ellipse class="cls-2" cx="776.98" cy="528.16" rx="85.43" ry="138.99"/><ellipse class="cls-2" cx="141.7" cy="526.8" rx="87.46" ry="159.33"/></svg>