<svg id="Calque_1" data-name="Calque 1" xmlns="http://www.w3.org/2000/svg" viewBox="0 0 1208.38 842"><defs><style>.cls-1{fill:#9c6046;}.cls-2{fill:#83e9ed;}.cls-3{fill:#fefefe;}.cls-4{fill:#41dce7;}.cls-5{fill:#3fdde3;}.cls-6{fill:#05d0dc;}.cls-7{fill:#251615;}.cls-8{fill:#01329d;}</style></defs><title>avatar1</title><path class="cls-1" d="M638.16,410.52c-3.65-.77-7.47-1-9.84-4.46-5,1.51-3.15-2.57-3.22-4.37-.59-17.25-1.1-34.49-1.42-51.74-.36-19.9-4.52-38.62-12-57.3-4.17-10.41-9.5-15.07-19.37-18.3-23.91-7.81-47.6-16.45-71.19-25.1q-34.26-12.58-68.48-25.57c-7.09-2.71-14.51-4.59-23.15-7.28,3.17,5.93,8,7.55,11.94,10,8.95,5.55,17.75,11.17,24.78,19.18,7.31,8.33,5.73,15.69-4.59,20.05a53.8,53.8,0,0,1-19,3.81c-56.88,2.25-112.44-5.9-166.92-21.91a211.47,211.47,0,0,1-46.23-19.24c-4.07-2.35-6.12-1.78-9.06,2-25.21,32.76-41.54,69.39-46,110.51-2,18.57-.67,37.52-.79,56.29-.08,11.33,0,11.33-11.46,11.88-2.25.11-4.49.26-6.74.4-10.58,4.25-21.51,7.38-31.12,14.2-34.2,24.27-38.32,68.33-8.64,97.82,14.94,14.85,33.74,20.7,54.06,22.42,4.64.4,6.39,1.86,7.26,6.4a211.31,211.31,0,0,0,19.15,56.55C222.2,658,262.06,694.6,315.29,716.14c8.55,3.46,11.21,8.53,11.34,16.9.29,19-.69,38,1.17,57,.32,3.26.8,6.68.21,10H454.49c-.68-21.56-1.54-43.13-1.75-64.7-.07-6.73,4.95-10.45,11.22-12.32,50.38-15.07,90.56-44.33,120.82-87.31,17.93-25.47,30.24-53.43,36.11-84.06,1.28-6.67,4.25-9.27,11-9.09,6.27.18,12.2-2.37,18.07-4.48,25.82-9.28,44.73-34.24,45.94-58.51C697.74,443.15,669,417,638.16,410.52ZM446.78,642.72c-9.23.41-18.48.15-27.72.15v-1.33c-22.95,0-45.89,0-68.83.05-3.85,0-5.54-.55-3.92-5,6.83-18.83,14.11-37.38,26.22-53.62,14.75-19.77,31.91-21.64,50-4.56,16.92,16,24.57,37.27,31,58.94C455.14,642.9,449.7,642.59,446.78,642.72ZM573.19,382c-8.11-.26-16.23-.17-24.34-.22,9.91,8.78,13.56,20.92,16.23,33,8.32,37.67-.4,71.06-29.83,96.57-38.49,33.36-94.79,21.68-120.2-23.75-5.4-9.65-9.54-19.8-11.13-30.88-.29-2-.2-4.42-2.76-6.27-2.53,14.47-7.29,27.7-15.33,39.63-35.08,52-107.22,48.68-137-6.56C232.64,453.67,232.13,423,246,391.93c3-6.69,6.55-11.49,14.58-10.92-2.38-3.05-5.39-1.44-8.16-1-8,1.24-16,.26-23.91.5-3.22.1-4.39-1.62-4.38-4.65,0-13,.07-26,0-39,0-3.57,1.57-4.87,5-4.78,24.18.62,48.36,0,72.56.93,27.16,1.08,54.4.79,81.6.44,7.57-.1,10.06,1.79,9.55,9.51-.7,10.45-.29,21-.13,31.48.08,5.06-.43,7.84-7.05,6.65-5.38-1-11.33-1.76-16.82.7,2.25,1.58,4.94,1.23,7.23.8,9.85-1.83,14.78,3.3,17.65,11.75,2.61,7.69,5.22,15.39,8.21,24.17,5.46-10,7.85-20.13,12.78-29.13,3.07-5.61,6.54-8.55,13.41-8,7.12.52,14.39,1.07,21.55-.33-9.87-3.34-20-2.07-29.94-1-8.87.95-9.32,1.06-9.33-8.06,0-11.26.14-22.53-.08-33.8-.09-4.49,1.34-6.16,6-6.1Q495,333,573.71,333.6c3.91,0,5.26,1.48,5.22,5.31-.15,12.52-.18,25,0,37.56C579,380.77,577.33,382.17,573.19,382Z" transform="translate(-95.77 42)"/><path class="cls-2" d="M628.32,406.06c-5,1.51-3.15-2.57-3.22-4.37-.59-17.25-1.1-34.49-1.42-51.74-.36-19.9-4.52-38.62-12-57.3-4.17-10.41-9.5-15.07-19.37-18.3-23.91-7.81-47.6-16.45-71.19-25.1q-34.26-12.58-68.48-25.57c-7.09-2.71-14.51-4.59-23.15-7.28,3.17,5.93,8,7.55,11.94,10,8.95,5.55,17.75,11.17,24.78,19.18,7.31,8.33,5.73,15.69-4.59,20.05a53.8,53.8,0,0,1-19,3.81c-56.88,2.25-112.44-5.9-166.92-21.91a211.47,211.47,0,0,1-46.23-19.24c-4.07-2.35-6.12-1.78-9.06,2-25.21,32.76-41.54,69.39-46,110.51-2,18.57-.67,37.52-.79,56.29-.08,11.33,0,11.33-11.46,11.88-2.25.11-4.49.26-6.74.4-5-10.91-7.75-22.54-11.05-34C134.19,340.27,125,304.89,124.45,268c-.37-25.49,1.72-32.93,32.43-42.1a122.91,122.91,0,0,1,28.75-5c6-.32,8.45-1.77,5.11-8.57-7.5-15.29-13.53-31.2-16.21-48.21-2.46-15.61.45-22.12,13.82-30.65,51.45-32.79,102.42-66.35,155.92-95.8C400.12,6.94,457.8-19.25,520.46-32.93a372.23,372.23,0,0,1,84-9c11.21.14,17.13,4.66,20,15.55,4.27,16.38.11,32.32-3,48.25-1.16,5.88-3.12,11.59-4.54,17.43-.57,2.32-2.87,5-1.11,7,1.91,2.19,4.65-.09,7-.62a44.52,44.52,0,0,1,12.63-1.38c19.88,1.21,31.87,18.75,25.75,37.71A58.88,58.88,0,0,1,654,96.8c-3,4.5-6.15,8.93-9.64,14,5,.74,9-1,13-1.6,18.69-2.68,25.82,3,27.85,21.7,4.25,39.15-2,77.39-10,115.41C664.21,299.06,647.42,350.17,629.86,401,629.28,402.69,628.83,404.39,628.32,406.06ZM426,216.42l.5-.53a8.19,8.19,0,0,0-1.18-.6c-.09,0-.31.32-.48.5Z" transform="translate(-95.77 42)"/><path class="cls-3" d="M368.81,381.79c2.25,1.58,4.94,1.23,7.23.8,9.85-1.83,14.78,3.3,17.65,11.75,2.61,7.69,5.22,15.39,8.21,24.17,5.46-10,7.85-20.13,12.78-29.13,3.07-5.61,6.54-8.55,13.41-8,7.12.52,14.39,1.07,21.55-.33l99.21.81c9.91,8.78,13.56,20.92,16.23,33,8.32,37.67-.4,71.06-29.83,96.57-38.49,33.36-94.79,21.68-120.2-23.75-5.4-9.65-9.54-19.8-11.13-30.88-.29-2-.2-4.42-2.76-6.27-2.53,14.47-7.29,27.7-15.33,39.63-35.08,52-107.22,48.68-137-6.56C232.64,453.67,232.13,423,246,391.93c3-6.69,6.55-11.49,14.58-10.92Zm-9.91,87.58a22.51,22.51,0,1,0,.19-45,22.51,22.51,0,1,0-.19,45Zm83.58,0a22.12,22.12,0,0,0,22.75-22.59,22.58,22.58,0,1,0-22.75,22.59Z" transform="translate(-95.77 42)"/><path class="cls-4" d="M368.81,381.79,260.59,381c-2.38-3.05-5.39-1.44-8.16-1-8,1.24-16,.26-23.91.5-3.22.1-4.39-1.62-4.38-4.64,0-13,.07-26,0-39,0-3.57,1.57-4.87,5-4.78,24.18.62,48.36,0,72.56.93,27.16,1.08,54.4.79,81.6.44,7.57-.1,10.06,1.79,9.55,9.51-.7,10.45-.29,21-.13,31.48.08,5.06-.43,7.84-7.05,6.65C380.25,380.13,374.3,379.33,368.81,381.79Z" transform="translate(-95.77 42)"/><path class="cls-5" d="M548.85,381.82,449.64,381c-9.87-3.34-20-2.07-29.94-1-8.87.94-9.32,1.05-9.33-8.07,0-11.26.14-22.53-.08-33.8-.09-4.49,1.34-6.16,6-6.1Q495,333,573.71,333.6c3.91,0,5.26,1.48,5.22,5.31-.15,12.52-.18,25,0,37.56.06,4.3-1.61,5.7-5.75,5.57C565.08,381.78,557,381.87,548.85,381.82Z" transform="translate(-95.77 42)"/><path class="cls-1" d="M432,657.14c-31.55,0-63.1-.07-94.65.06-5.3,0-7.61-.75-5.38-6.89,9.38-25.9,19.4-51.42,36.05-73.75,20.29-27.19,43.88-29.75,68.71-6.26,23.27,22,33.79,51.25,42.63,81.05,2.27,7.66-5.21,7.23-9.23,7.41-12.69.57-25.42.21-38.13.21Z" transform="translate(-95.77 42)"/><path class="cls-6" d="M358.9,469.37a22.51,22.51,0,1,1,22.71-22.75A22.29,22.29,0,0,1,358.9,469.37Z" transform="translate(-95.77 42)"/><path class="cls-6" d="M442.48,469.33a22.28,22.28,0,0,1-22.4-23,22.58,22.58,0,0,1,45.15.42A22.12,22.12,0,0,1,442.48,469.33Z" transform="translate(-95.77 42)"/><path class="cls-3" d="M945.41,236.91l-.41.42C944.91,237,945.05,236.83,945.41,236.91Z" transform="translate(-95.77 42)"/><path class="cls-3" d="M945,653.91l.41.42C945.05,654.41,944.91,654.27,945,653.91Z" transform="translate(-95.77 42)"/><path class="cls-3" d="M1303.74,663.15l.39-.39C1304.21,663.09,1304.08,663.23,1303.74,663.15Z" transform="translate(-95.77 42)"/><path class="cls-7" d="M385.06,631.56a84.33,84.33,0,0,1-49.88-13.31c-9.08-5.73-16.51-13.24-22.94-21.65-2.57-3.36-4.46-7.65-1.61-12.2s6.26-6.2,11.38-5.46c4.36.63,5.94,4.53,8.29,7.25,8.65,10,18.74,17.29,31.63,21.28,12.05,3.73,24,3.64,36.21,2.52,3.91-.36,8.65,3.34,9.84,7.8a10.16,10.16,0,0,1-5.58,11.94C396.75,632.31,390.87,631.32,385.06,631.56Z" transform="translate(-95.77 42)"/><path class="cls-8" d="M106.18,799.83c9.41-17.56,24.26-29.88,41.57-39.63,23.32-13.14,49.08-18.85,75.5-22.45,35-4.77,70.17-4.69,105.36-5,2.78,8.89,1.32,18,1.36,27,0,5.92,2.31,9.36,7.27,12.4,22.8,13.93,47.94,14,73.41,11.85a116.05,116.05,0,0,0,33-7.3c7-2.77,10.25-6.76,9.95-14.79-.36-9.67-2.94-19.39-.56-29.11,40.05.18,80.12.18,119.7,7.26C606,746,637,756.67,661,781.24c5.44,5.58,10.69,11.39,14,18.53-2.17.08-4.33.22-6.5.22H112C110,800,108.11,799.89,106.18,799.83Z" transform="translate(-95.77 42)"/></svg>