<svg id="Calque_1" data-name="Calque 1" xmlns="http://www.w3.org/2000/svg" viewBox="0 0 856.81 1054.36"><defs><style>.cls-1{fill:#ffa81f;}.cls-2{fill:#ca6634;}.cls-3{fill:#1843ed;}.cls-4{fill:#99cb98;}.cls-5{fill:#ff4200;}.cls-6{fill:#b23533;}.cls-7{fill:#a543ec;}.cls-8{fill:#fefefd;}.cls-9{fill:#fbfafc;}.cls-10{fill:#f9ebe3;}.cls-11{fill:#e5b39b;}.cls-12{fill:#fff;}.cls-13{fill:#6d0d3c;}</style></defs><title>avatar2</title><path class="cls-1" d="M400.82,722.81c-110.75,0-205.42,32-243.61,77.19H644.42C606.23,754.81,511.56,722.81,400.82,722.81Z" transform="translate(29.51 254.36)"/><path class="cls-2" d="M463.52,792.31c0-20.95.09-41.91-.24-62.86-.11-7.72,1.48-12.37,10.31-14.49,71.08-17.06,129.17-55,175.62-111.09,3-3.61,5.93-6.33,10.75-6.42-.53-7.35,3.51-13.19,7.21-18.69,32.67-48.55,51.57-101.41,51.66-160.44,0-5.21,1.68-10.43,2.58-15.64q-1-8.7-2.08-17.4l-8.76-60.58c-2.65-21.23-14.09-39.68-19.13-60.15-1.23-4-7.65-7.27-1.92-12.38l0,0c-8.49,2.88-8.91-5-11.37-9.14C634.82,169.79,574,116.92,491.7,94.41,364.62,59.65,237.78,91.22,148.2,201.5c-11.6,14.27-24.63,27.55-32.21,44.78-1.52,3.44-4.22,6.74-8.76,3-1,0-1.46.45-1.43,1.46,3.92-.4,5,1.51,4.2,5.06-6.09,22.42-18.48,42.72-22.24,65.94-2.76,21.2-8.4,42-9,63.48,1.55,16.51-10.18,17-21.94,19.47-43.19,9.05-71.27,35.78-82.29,78-11.95,45.69,2.73,84.43,39.91,112.68,35,26.58,74.23,28.63,113,8.72,12.56-6.46,18-4.38,26.37,5.15,46.45,53.14,102.44,91.27,172.47,106.37,4.81,1,8.33,3,8.35,8.42.06,21.59,0,43.19,0,66.55l-.15-.14V800H463.34ZM301,164.41a378,378,0,0,1,29.77-30.28c15.77-14.31,40.67-13.19,55.88,1.79,3.1,3.06,6,6.37,9.4,10.05,1.05-1.49,2.32-2.45,2.39-3.49,1.15-18,10.34-30.78,26.81-36.69,16.73-6,32.74-3.26,45.81,10.21,7.82,8.06,16.18,15.62,23.7,23.95,15.68,17.37,14.66,41.39-2,57.93-17.13,17-39.83,17.59-57.51,1-11-10.32-21.28-21.36-33.52-33.72-6.3,31.89-28.22,48.09-50.18,63-15.45,10.49-37.35,3.12-50.61-13.51C289.62,200.47,289.23,177.82,301,164.41ZM258.66,486c-50.38-8.16-83.45-40.09-100.23-88.11-7.74-22.14-8.1-45.18-2.06-67.73,2.65-9.9,1.17-15.25-7.14-21.9-20.83-16.7-23.18-41.61-7.88-62.15,8.09-10.84,19.55-14.23,32.1-14.48,20-.39,40.06-.1,60.09-.1,0,.32,0,.65,0,1,22.94,0,46.16-2.22,68.78.49,39.24,4.72,68.21,27.36,89.19,60.08,6.21,9.69,9.07,9.19,15.16-.1,27.16-41.44,65.08-63,115.54-61.65,32.71.85,65.46.06,98.2.2,22.68.09,36,8.42,42.85,26.28,7.34,19.12,3,36.55-14.6,50.72-7.49,6-9.3,10.73-7.15,20.54,15.81,71.89-23,138-93.9,154.91-55.34,13.18-104.65-3.39-139.43-55.95-8.33-12.6-10.89-11-18.34.34C358.84,475.82,313.44,494.91,258.66,486Zm190.71,86.18a222.05,222.05,0,0,1-46.39.88c-2.45,1.09-4.79,1.39-6.79-.92-14.63,2.12-29.28,1.64-43.94.38l-3.55-.36-6-1.33c-20.75-6.92-30.4-21.58-29-44.16,1.25-21,9.73-31.48,28.82-35.55l6.61-1.56c15.28-3.14,30.67-2.08,46.06-1.16H403c15.4-.92,30.79-2,46.08,1.16l6.59,1.57c17.4,4.6,26.33,16.73,28.6,33.76,2.88,21.55-6.85,36.45-26.14,45.6Z" transform="translate(29.51 254.36)"/><path class="cls-3" d="M344.91,68.51c-57.16-22-93.78-61.94-105.7-122.58-6.8-34.58-1.91-68.05,13.81-99.78a41,41,0,0,0,1.77-5c12.51-19.85,27.25-37.69,46.12-51.93,26-19.63,54.83-29.87,87.83-31.06,40.95-1.48,76.82,9.72,108.25,35.68,15.54,12.84,27.93,28.44,38.91,45.22-.46,1.23.09,1.82,1.28,2l.12.15c5.68,14.25,11.76,28.31,14.79,43.53C567.52-37.71,526.7,37.25,453,66.23c-2,.77-4,1.45-6,2.18-6.51-13.85-15.59-25.24-30.26-31.11C388,25.79,360.66,37.69,344.91,68.51Z" transform="translate(29.51 254.36)"/><path class="cls-1" d="M462.62,762.91c-13.57,15.27-19.5,16.4-35.32,6.72-2.7.16-5.57-.21-7.5,2.37,0,16.88-6.66,24.89-20.61,24.63-14.12-.27-20.89-8.26-20.84-24.63-1.94-2.58-4.8-2.21-7.5-2.37-15.74,9.63-21.19,8.63-35.53-6.54L335.08,800H462.91Z" transform="translate(29.51 254.36)"/><path class="cls-4" d="M599.51-251.35c-1.77-.28-2.6-1.16-1.9-3C599.57-254.2,600.43-253.33,599.51-251.35Z" transform="translate(29.51 254.36)"/><path class="cls-5" d="M660,597.45c-.53-7.35,3.51-13.19,7.21-18.69,32.67-48.55,51.57-101.41,51.66-160.44,0-5.21,1.68-10.43,2.58-15.64,46,.49,86,29.42,100.34,72.62,14.74,44.44-.46,91.93-38.73,120.94C750.25,621.07,694.33,624.45,660,597.45Z" transform="translate(29.51 254.36)"/><path class="cls-3" d="M689.5,252.14c-8.49,2.88-8.91-5-11.37-9.14C634.82,169.79,574,116.92,491.7,94.41,364.62,59.65,237.78,91.22,148.2,201.5c-11.6,14.27-24.63,27.55-32.21,44.78-1.52,3.44-4.22,6.74-8.76,3,10.6-34.35,33.72-60.41,57.24-86.17Q226,95.68,313.76,70.05a364.34,364.34,0,0,1,170.53.1c40.08,12.07,77.05,30.19,110,56.19,41.52,32.75,74.34,72.39,96,120.92C691.2,249.29,691.41,250.77,689.5,252.14Z" transform="translate(29.51 254.36)"/><path class="cls-5" d="M484.29,70.15a364.34,364.34,0,0,0-170.53-.1c-1.57-11.57,3.37-22.55,3.1-34,25.36-49.6,69.35-68.75,115.67-50.23,23.61,9.44,38.22,27.79,48.71,50.07C481,47.42,486.05,58.48,484.29,70.15Z" transform="translate(29.51 254.36)"/><path class="cls-3" d="M710.57,324.7c-2.65-21.23-14.09-39.68-19.12-60.15l4.78-4.85c9.83,18.21,14,38.17,18.1,58.15,0,0,0,.4,0,.4q.06,3.94.13,7.87Z" transform="translate(29.51 254.36)"/><path class="cls-3" d="M710.57,324.7l3.92,1.42c6.82,19.31,7.27,39.13,4.85,59.18Q714.95,355,710.57,324.7Z" transform="translate(29.51 254.36)"/><path class="cls-3" d="M696.23,259.7l-4.78,4.85c-1.24-4-7.66-7.27-1.93-12.38C696.77,250.22,694.28,256.94,696.23,259.7Z" transform="translate(29.51 254.36)"/><path class="cls-6" d="M714.36,318.25s0-.42,0-.4Z" transform="translate(29.51 254.36)"/><path class="cls-3" d="M110,255.82c-6.09,22.42-18.48,42.72-22.23,65.94l-3.91-6.27c4.88-20.82,8.73-42,20.15-60.63Z" transform="translate(29.51 254.36)"/><path class="cls-3" d="M83.86,315.49l3.91,6.27c-2.77,21.2-8.41,42-9,63.48C75.47,361.61,79.1,338.51,83.86,315.49Z" transform="translate(29.51 254.36)"/><path class="cls-3" d="M110,255.82l-6-1c.6-1.36,1.2-2.73,1.79-4.1C109.72,250.36,110.84,252.27,110,255.82Z" transform="translate(29.51 254.36)"/><path class="cls-7" d="M233.55,232.53c22.94,0,46.16-2.22,68.78.49,39.24,4.72,68.21,27.36,89.19,60.08,6.21,9.69,9.07,9.19,15.16-.1,27.16-41.44,65.08-63,115.54-61.65,32.71.85,65.46.06,98.2.2,22.68.09,36,8.42,42.85,26.28,7.34,19.12,3,36.55-14.6,50.72-7.49,6-9.3,10.73-7.15,20.54,15.81,71.89-23,138-93.9,154.91-55.34,13.18-104.65-3.39-139.43-55.95-8.33-12.6-10.89-11-18.34.34-31,47.43-76.41,66.52-131.19,57.64-50.38-8.16-83.45-40.09-100.23-88.11-7.74-22.14-8.1-45.18-2.06-67.73,2.65-9.89,1.17-15.25-7.14-21.9-20.83-16.7-23.18-41.61-7.88-62.15,8.09-10.84,19.55-14.23,32.1-14.48,20-.39,40.06-.1,60.09-.1ZM388.27,360.24c.36-60-45.84-107.19-105.6-107.78S174,299.73,173.65,359.08c-.29,58.35,47.33,107.21,104.9,107.62C340.84,467.14,387.91,421.47,388.27,360.24Zm129,106.46c59.16-.14,107.11-48,107.2-107,.08-58.83-48.28-107.21-107.18-107.22-60.22,0-106.06,46.74-107.84,106.16C407.59,421.55,465.37,470.14,517.3,466.7Z" transform="translate(29.51 254.36)"/><path class="cls-3" d="M401.7,165.14c-6.3,31.89-28.22,48.09-50.18,63-15.45,10.5-37.35,3.12-50.61-13.51-11.29-14.16-11.68-36.81.09-50.22a378,378,0,0,1,29.77-30.28c15.77-14.31,40.67-13.19,55.88,1.79,3.1,3.06,6,6.37,9.4,10.05,1.05-1.49,2.32-2.45,2.39-3.49,1.15-18,10.34-30.78,26.81-36.69,16.73-6,32.74-3.26,45.81,10.21,7.82,8.06,16.18,15.62,23.7,23.95,15.68,17.37,14.66,41.39-2,57.93-17.13,17-39.83,17.59-57.51,1C424.24,188.54,413.94,177.5,401.7,165.14Z" transform="translate(29.51 254.36)"/><path class="cls-8" d="M403,488.43c15.39-.92,30.78-2,46.07,1.16q.15,41.31.31,82.62a222.05,222.05,0,0,1-46.39.88Q401.15,530.76,403,488.43Z" transform="translate(29.51 254.36)"/><path class="cls-8" d="M396.19,572.17c-14.63,2.12-29.28,1.64-43.94.38l-2.6-3.58-.56-79.38c15.28-3.14,30.67-2.08,46.06-1.16Q395.68,530.3,396.19,572.17Z" transform="translate(29.51 254.36)"/><path class="cls-9" d="M342.71,570.86c-20.75-6.92-30.4-21.58-29-44.16,1.25-21,9.73-31.48,28.82-35.55Q342.6,531,342.71,570.86Z" transform="translate(29.51 254.36)"/><path class="cls-9" d="M455.65,491.16c17.4,4.6,26.33,16.73,28.6,33.76,2.88,21.55-6.85,36.45-26.14,45.59-2.5-2.67-3-6-3-9.44Q455.4,526.12,455.65,491.16Z" transform="translate(29.51 254.36)"/><path class="cls-10" d="M419.8,772c0,16.88-6.66,24.89-20.61,24.63-14.12-.27-20.89-8.26-20.84-24.63A118.51,118.51,0,0,0,419.8,772Z" transform="translate(29.51 254.36)"/><path class="cls-10" d="M462.81,724.52q-.09,19.2-.19,38.39c-13.57,15.27-19.5,16.4-35.32,6.72C442.74,757.43,456.15,743.63,462.81,724.52Z" transform="translate(29.51 254.36)"/><path class="cls-10" d="M370.85,769.63c-15.74,9.63-21.19,8.63-35.53-6.54,0-12,0-23.92,0-40.47C342.39,745.36,356.07,758,370.85,769.63Z" transform="translate(29.51 254.36)"/><path class="cls-11" d="M396.19,572.17q-.51-41.86-1-83.74H403q-1.89,42.33,0,84.66C400.53,574.18,398.19,574.48,396.19,572.17Z" transform="translate(29.51 254.36)"/><path class="cls-11" d="M455.65,491.16q-.27,34.95-.55,69.91c0,3.49.51,6.77,3,9.44l-8.74,1.7q-.15-41.31-.31-82.62Z" transform="translate(29.51 254.36)"/><path class="cls-11" d="M342.71,570.86q-.1-39.86-.23-79.71l6.61-1.56q.27,39.69.56,79.38c-.32,1.07-.63,2.15-.95,3.22Z" transform="translate(29.51 254.36)"/><path class="cls-9" d="M348.7,572.19c.32-1.07.63-2.15.95-3.22l2.6,3.58Z" transform="translate(29.51 254.36)"/><path class="cls-12" d="M388.27,360.24c-.36,61.23-47.43,106.9-109.72,106.46-57.57-.41-105.19-49.27-104.9-107.62.3-59.35,49.24-107.21,109-106.62S388.63,300.2,388.27,360.24Zm-15.43,20.89c0-17.84-13.33-31.28-31.3-31.45-17.78-.17-31.92,13.38-32.09,30.76-.17,17.77,14.65,32.83,32.23,32.75C358.34,413.12,372.81,398.24,372.84,381.13Z" transform="translate(29.51 254.36)"/><path class="cls-12" d="M517.3,466.7c-51.93,3.44-109.71-45.15-107.82-108.08,1.78-59.42,47.62-106.17,107.84-106.16,58.9,0,107.26,48.39,107.18,107.22C624.41,418.69,576.46,466.56,517.3,466.7Zm-64.61-117c-17.47,0-31.75,14-32.61,30-1.21,22.49,17.81,33.93,33.13,33.55,16.73-.43,31.57-15.58,31.37-32.29A31.82,31.82,0,0,0,452.69,349.7Z" transform="translate(29.51 254.36)"/><path class="cls-13" d="M372.84,381.13c0,17.11-14.5,32-31.16,32.06-17.58.08-32.4-15-32.23-32.75.17-17.38,14.31-30.93,32.09-30.76C359.51,349.85,372.88,363.29,372.84,381.13Z" transform="translate(29.51 254.36)"/><path class="cls-13" d="M452.69,349.7a31.82,31.82,0,0,1,31.89,31.23c.2,16.71-14.64,31.86-31.37,32.29-15.32.38-34.34-11.06-33.13-33.55C420.94,363.72,435.22,349.74,452.69,349.7Z" transform="translate(29.51 254.36)"/></svg>