<svg id="Calque_1" data-name="Calque 1" xmlns="http://www.w3.org/2000/svg" viewBox="0 0 800 873.63"><defs><style>.cls-1{fill:#d8a54c;}.cls-2{fill:#99cb98;}.cls-3{fill:#6e3c3a;}.cls-4{fill:#1753a0;}.cls-5{fill:#6d3c3a;}.cls-6{fill:#3d3d3d;}.cls-7{fill:#fcfdfc;}.cls-8{fill:#449fcb;}.cls-9{fill:#4f261d;}.cls-10{fill:#fff;}</style></defs><title>avatar3</title><rect class="cls-1" y="73.63" width="800" height="800"/><path class="cls-2" d="M542.28-71.83c-1.06-.17-1.55-.7-1.14-1.8C542.32-73.53,542.83-73,542.28-71.83Z" transform="translate(0 73.63)"/><path class="cls-3" d="M400.49,606.47a216.73,216.73,0,0,0,194-120h-388A216.73,216.73,0,0,0,400.49,606.47Z" transform="translate(0 73.63)"/><path class="cls-3" d="M397.87,189.62c-114.87,0-208,93.12-208,208a207,207,0,0,0,21.85,92.86H584a207.17,207.17,0,0,0,21.84-92.86C605.85,282.74,512.74,189.62,397.87,189.62Z" transform="translate(0 73.63)"/><path d="M665.58,314.5c-2.7-26.1-7.84-51.61-17.48-76.1-8.49-21.56-20.18-41.16-36.28-57.9-20.48-21.28-45.43-35.06-73.76-42.92-21.83-6.05-44.17-8.17-66.75-8.19q-69.29-.06-138.57,0a274.73,274.73,0,0,0-55.57,5.09c-39.93,8.17-73.91,26.57-99.81,58.6-15.28,18.89-25.74,40.38-32.76,63.54a281.73,281.73,0,0,0-11.87,88.1c.46,23.15.53,46.3.69,69.45q.53,74.92,1,149.84.3,47.28.53,94.54c1,0,1.93.08,2.89.08h135c1.82,0,47.48,10.11,49.3,10.07,2.23-11,43.85-.38,49.91-9.64,7.62-11.62-11.61,7.48,0,0,1.76-1.13,4.39-8.45,4.38-10.5-.05-16.8,22.74-12.11,22.77-28.9-10.07,0-95.93-74.49-106-74.12-6.27.23-12.41-.76-18.46-1.67s-11.38-4.25-17-6.7c-6.42-2.81-12-7-17-11.5a64.19,64.19,0,0,1-9.24-10.41,93.29,93.29,0,0,1-10.31-17.74,64.12,64.12,0,0,1-3.39-11h0c-.45-1.94-.87-3.89-1.32-5.84-2.07-8.93-1-17.86-1-26.76-.17-46.5-.08-93-.08-139.51,0-6.4,0-6.4,6.33-6.3a20.61,20.61,0,0,1,5-15.59c4.11-4.77,9.21-7.87,15.44-8.06,11.64-.33,23.29-.13,34.93-.16,2.13-4.92,4.62-9.68,6.87-14.53a94.34,94.34,0,0,1,5.7-10.53c.46-.72.9-2,2.08-1.66s.68,1.42.83,2.21c1.52,8.2,3,16.41,5.11,24.5,13.25,0,26.5.11,39.74.06a48,48,0,0,1,27.76,8.27,54.7,54.7,0,0,1,15,15.46c10.2,0,20.41,0,30.61,0a32,32,0,0,0,3.46-.5c1.28-.15,2.63-.42,3.18,1.28.89-.11,1.18-.85,1.51-1.51A36,36,0,0,1,429.45,295a54,54,0,0,1,12.67-6.87c9.7-3.9,19.84-3.9,30.06-3.85q42.24.19,84.5,0c3.79,0,6.81,1.49,9.73,3.36a25.08,25.08,0,0,1,9.84,12.41c1.08,2.77.14,5.74.48,8.59,6.46-1.59,6.45-1.59,6.45,5.21q0,77.81,0,155.62a69.35,69.35,0,0,1-2.21,17h0a89.81,89.81,0,0,1-3.45,10.69,71.2,71.2,0,0,1-12.5,20.9c-4.41,5.09-9.16,10.09-14.71,13.63s-11.21,6.85-17.71,8.89c-5.38,1.68-10.83,2.94-16.25,4.37a15.1,15.1,0,0,1-3.8.39q-20.73.09-41.47.12c0,16.27.15,32.54,0,48.81,0,3.08-15.71,10.59-13.18,12.17,14.95,9.34-17.67,46.57-9.63,62.18,3.26,6.33,14.83,2.38,15.77,9.63.95.07,26.19-9.63,27.14-9.63,48.72,0,125.58-10.06,174.3-10.07.85,0,1.71-.07,2.56-.12q0-126.86-.06-253.71C667.9,374.65,668.68,344.53,665.58,314.5Z" transform="translate(0 73.63)"/><path class="cls-4" d="M561.41,351.22h-1c-7,.14-6.94.14-6.89,7,.06,9.52.43,19.07-.13,28.56a59.59,59.59,0,0,1-4.25,18.38c-2.29,5.78-4.69,11.47-8.42,16.52-4.46,6.06-9.16,11.83-15.74,15.81-2.33,1.41-4.21,3.5-6.66,4.82a81.15,81.15,0,0,1-20.66,8.08c-6.92,1.57-13.77.92-20.65,1.14-8.29.25-15.94-2.27-23.42-5.52-1.82-.79-3.66-1.52-5.5-2.28a3.6,3.6,0,0,0-3.81-2.49c-13.82-8.53-23.22-20.75-29.26-35.63-1.45-3.57-2.11-7.47-2.93-11.27a7.63,7.63,0,0,0-6.65-5.94,29.8,29.8,0,0,1-4.59-1.21c-4.11-1.35-12.1,2.8-14.09,5.95-1,1.55-1.13,3.81-1.56,5.75-2.05,9.3-6.49,17.24-12.39,24.64A95.79,95.79,0,0,1,362.33,435c-7.49,6.8-16.31,10.95-25.85,14.16-10,3.37-20.25,2.79-30.35,2.12A55.09,55.09,0,0,1,290,447.24c-4.63-1.81-8.69-4.61-13.28-6.42-1.76-.7-2.91-2.8-4.56-3.91-5.2-3.5-9.06-8.34-12.89-13.1-3.48-4.31-5.62-9.5-8.1-14.48-4.67-9.35-6.33-19.18-6.25-29.46.06-8.47.08-16.94,0-25.4,0-1.07.93-2.56-2-2.63-7.27-.16-13.51-3.06-17.47-9.64-1.22-2.55-.46-6.05-3.67-7.64,0-.65-.09-1.3-.14-1.95a20.61,20.61,0,0,1,5-15.59c4.11-4.77,9.21-7.87,15.44-8,11.64-.34,23.29-.14,34.93-.17h20.59c13.25,0,26.5.11,39.74.06a48,48,0,0,1,27.76,8.27,54.7,54.7,0,0,1,15,15.46c1.63,3.53,3.86,6.73,5,10.52a60.73,60.73,0,0,1,2.56,20.48c0,.91.1,2.75.63,2.43,1.68-1,3,.27,4.57,0a40.59,40.59,0,0,1,13.95,0c3.52.59,3.89.37,4-3,.12-4.56-.14-9.09,1-13.65.92-3.67,2.45-7.18,2.91-11a3.53,3.53,0,0,0,2.48-3.82l.16-1.2c.89-.11,1.18-.85,1.51-1.51a36,36,0,0,1,10.55-12.28,54,54,0,0,1,12.67-6.87c9.7-3.9,19.84-3.9,30.06-3.85q42.24.19,84.5,0c3.79,0,6.81,1.49,9.73,3.36a25.08,25.08,0,0,1,9.84,12.41c1.08,2.77.14,5.74.48,8.6a30.66,30.66,0,0,1-5.56,12.17c-1,1.31-3.36,1.88-4.79,3.28A7,7,0,0,0,561.41,351.22Zm-245.2-30.31V321c-7.82,0-15.65-.17-23.47,0-16.12.42-31.63,12.82-34.87,28.7-2.76,13.52-2.43,27.4-.37,40.93,4.39,28.71,29,49.27,58.38,49.84,28.12.54,53.46-20,58.95-48.09,2.41-12.29,1.82-24.83.92-37.17-1.41-19.2-19.08-35-38.65-34.34C330.15,321.11,323.17,320.91,316.21,320.91ZM482,321v0c-7.81,0-15.64-.18-23.45,0-17.25.48-33.15,14.75-35.56,31.87-1.35,9.58-.71,19.25-.52,28.87.58,29.08,21,52.65,49.69,57.82,31.58,5.69,62.78-15.87,68.64-47.4,2.09-11.27,1.18-22.65,1.09-34-.16-19.85-16.91-36.67-36.76-37.2C497.46,320.79,489.74,321,482,321Zm73.25,3.81c-3.42,0-5.64,2.23-5.59,5.54a5.83,5.83,0,1,0,5.59-5.54Zm-312,0a5.8,5.8,0,1,0-.24,11.6,6.12,6.12,0,0,0,5.79-5.74A5.87,5.87,0,0,0,243.26,324.77Z" transform="translate(0 73.63)"/><path class="cls-5" d="M414.75,338.36c-.46,3.78-2,7.29-2.91,11-1.14,4.56-.88,9.09-1,13.65-.09,3.41-.46,3.63-4,3a40.59,40.59,0,0,0-13.95,0c-1.53.27-2.89-1-4.57,0-.53.32-.67-1.52-.63-2.43a60.73,60.73,0,0,0-2.56-20.48c-1.15-3.79-3.38-7-5-10.52,10.2,0,20.41,0,30.61,0a32,32,0,0,0,3.46-.5c1.28-.15,2.63-.42,3.18,1.28-.05.4-.11.8-.16,1.2A3.28,3.28,0,0,0,414.75,338.36Z" transform="translate(0 73.63)"/><path class="cls-6" d="M221.81,334.56c3.21,1.59,2.45,5.09,3.67,7.64C222.62,340.43,221.62,337.78,221.81,334.56Z" transform="translate(0 73.63)"/><path class="cls-6" d="M561.41,351.22a7,7,0,0,1,5-2.57C565.64,351.29,563.59,351.37,561.41,351.22Z" transform="translate(0 73.63)"/><path class="cls-6" d="M444.31,441.29a3.6,3.6,0,0,1,3.81,2.49A3.24,3.24,0,0,1,444.31,441.29Z" transform="translate(0 73.63)"/><path class="cls-7" d="M316.21,320.91c7,0,13.94.2,20.89,0,19.57-.67,37.24,15.14,38.65,34.34.9,12.34,1.49,24.88-.92,37.17C369.34,420.46,344,441,315.88,440.48c-29.39-.57-54-21.13-58.38-49.84-2.06-13.53-2.39-27.41.37-40.93,3.24-15.88,18.75-28.28,34.87-28.7,7.82-.2,15.65,0,23.47,0Zm10.07,11a5.43,5.43,0,0,0,.49,1.08c6.27,8.07,7.32,16.85,2.52,25.8-4.94,9.24-13.08,13.2-23.51,12.09-2-.22-1.8.75-1.79,2,0,5.24-.06,10.49.06,15.74a30.49,30.49,0,0,0,28.87,29.68c15.71,1.05,30.14-10.05,32.19-25.61a149.4,149.4,0,0,0,.13-34.92c-1.45-14.08-11.19-24.06-25.09-26.75A24.92,24.92,0,0,0,326.28,331.93Z" transform="translate(0 73.63)"/><path class="cls-7" d="M482,321c7.71,0,15.43-.17,23.13,0,19.85.53,36.6,17.35,36.76,37.2.09,11.32,1,22.7-1.09,34-5.86,31.53-37.06,53.09-68.64,47.4-28.7-5.17-49.11-28.74-49.69-57.82-.19-9.62-.83-19.29.52-28.87,2.41-17.12,18.31-31.39,35.56-31.87,7.81-.21,15.64,0,23.45,0Zm12.34,55c0-5.32.08-9.72,0-14.11-.44-20-17.67-34.48-36.53-30.81-2.46.48-3.37.63-1.48,3.33,5.65,8.12,6.09,16.84,1,25.35s-12.87,12.32-22.78,11.09c-2.14-.26-2,.64-2,2,0,5.36-.06,10.72.08,16.07.44,15.83,13,28.41,29.18,29.4a30.85,30.85,0,0,0,32-25.64C494.78,386.81,494.1,380.92,494.37,376Z" transform="translate(0 73.63)"/><path class="cls-8" d="M555.28,324.77a5.81,5.81,0,1,1-5.59,5.54C549.64,327,551.86,324.8,555.28,324.77Z" transform="translate(0 73.63)"/><path class="cls-8" d="M243.26,324.77a5.87,5.87,0,0,1,5.55,5.86,6.12,6.12,0,0,1-5.79,5.74,5.8,5.8,0,1,1,.24-11.6Z" transform="translate(0 73.63)"/><path class="cls-6" d="M414.75,338.36a3.28,3.28,0,0,1,2.48-3.82A3.53,3.53,0,0,1,414.75,338.36Z" transform="translate(0 73.63)"/><path d="M494.37,376c-.27,4.95.41,10.84-.51,16.71a30.85,30.85,0,0,1-32,25.64c-16.21-1-28.74-13.57-29.18-29.4-.14-5.35,0-10.71-.08-16.07,0-1.39-.12-2.29,2-2,9.91,1.23,17.71-2.57,22.78-11.09s4.61-17.23-1-25.35c-1.89-2.7-1-2.85,1.48-3.33,18.86-3.67,36.09,10.79,36.53,30.81C494.45,366.25,494.37,370.65,494.37,376Z" transform="translate(0 73.63)"/><path class="cls-4" d="M279.15,704.86c2.24-11.62,7.53-21.75,13.6-31.52a99.44,99.44,0,0,1,29.15-30,4.87,4.87,0,0,0,2.33-4.67c-.05-17.74,0-35.49,0-53.23l136.4,0c3.74,0,7.48.07,11.23.1,0,17.19.15,34.37,0,51.55,0,3.26,1,5.14,3.5,6.82,14.94,9.86,26.23,23.34,34.26,39.83,3.26,6.69,6.69,13.38,7.63,21-1,.07-1.91.2-2.87.2H281.71C280.86,705,280,704.9,279.15,704.86Z" transform="translate(0 73.63)"/><path class="cls-3" d="M397.87,603.84c81.49,0,147.6-45.59,181.71-113.84l-360.8-.88C252.9,557.37,316.37,603.84,397.87,603.84Z" transform="translate(0 73.63)"/><path class="cls-9" d="M383.71,521.07c-14.81,0-28.51-3.55-40.36-12.81a59.21,59.21,0,0,1-11.78-12.6c-2.88-4.07-2.12-8.07,1.61-10.58,3.37-2.27,7.61-1.35,10.3,2.35,8.35,11.49,19.63,17.5,33.69,19.15,5.31.62,10.42-.24,15.63-.2,4.22,0,6.54,2,7,5.87a6.85,6.85,0,0,1-5.31,8,20.61,20.61,0,0,1-4.08.81C388.21,521.16,386,521.07,383.71,521.07Z" transform="translate(0 73.63)"/><path class="cls-9" d="M400.42,478.5a15.4,15.4,0,0,0,8.89-2.2c7.72-4,12.76-14.81,8.71-23.84a148.71,148.71,0,0,0-16-26.88c-1.53-2.1-2.41-1.52-3.5.18-4.22,6.56-8.76,12.93-12.56,19.73-2.36,4.22-4.81,8.79-4.73,13.83C381.39,470.18,390.56,479,400.42,478.5Z" transform="translate(0 73.63)"/><ellipse class="cls-10" cx="330" cy="445.84" rx="42.91" ry="51.23"/><path d="M356.27,379.41c0,11.29-9.58,21.11-20.58,21.16-11.61.05-21.39-9.89-21.28-21.62.11-11.48,9.45-20.42,21.19-20.31S356.3,367.62,356.27,379.41Z" transform="translate(0 73.63)"/><ellipse class="cls-10" cx="467.49" cy="447.59" rx="42.91" ry="51.23"/><path d="M484.33,379.49c0,11.29-9.58,21.12-20.58,21.16-11.61.05-21.4-9.89-21.28-21.62.11-11.48,9.44-20.42,21.19-20.31S484.35,367.7,484.33,379.49Z" transform="translate(0 73.63)"/><rect x="203.89" y="328.93" width="387.95" height="52.54"/><path class="cls-5" d="M297.65,308.79H277.06c2.13-4.92,4.62-9.68,6.87-14.53a94.34,94.34,0,0,1,5.7-10.53c.46-.71.9-2,2.08-1.66s.68,1.42.83,2.21C294.06,292.49,295.55,300.7,297.65,308.79Z" transform="translate(0 73.63)"/></svg>